<?xml version="1.0" encoding="utf-8"?>
<!-- Generator: Adobe Illustrator 17.0.0, SVG Export Plug-In . SVG Version: 6.00 Build 0)  -->
<!DOCTYPE svg PUBLIC "-//W3C//DTD SVG 1.1//EN" "http://www.w3.org/Graphics/SVG/1.1/DTD/svg11.dtd">
<svg version="1.1" id="Livello_1" xmlns="http://www.w3.org/2000/svg" xmlns:xlink="http://www.w3.org/1999/xlink" x="0px" y="0px"
	 width="708.661px" height="139.434px" viewBox="0 0 708.661 139.434" enable-background="new 0 0 708.661 139.434"
	 xml:space="preserve">
<g>
	<path fill="#F07F13" d="M638.944,139.434H69.717C31.274,139.434,0,108.164,0,69.717C0,31.274,31.274,0,69.717,0h569.228
		c38.438,0,69.717,31.274,69.717,69.717C708.661,108.164,677.382,139.434,638.944,139.434z M69.717,5.889
		c-35.195,0-63.828,28.633-63.828,63.828s28.633,63.828,63.828,63.828h569.228c35.195,0,63.828-28.633,63.828-63.828
		S674.14,5.889,638.944,5.889H69.717z"/>
	<path fill-rule="evenodd" clip-rule="evenodd" fill="#F07F13" d="M328.745,14.341h296.948c35.312,0,64.19,24.36,64.19,54.145v1.079
		c0,29.79-28.877,54.146-64.19,54.146H328.745c-35.308,0-64.185-24.355-64.185-54.146v-1.079
		C264.56,38.701,293.437,14.341,328.745,14.341z"/>
	<path fill-rule="evenodd" clip-rule="evenodd" fill="#FFFFFF" d="M72.012,14.341h251.142c29.878,0,54.229,24.36,54.229,54.145
		v1.079c0,29.79-24.351,54.146-54.229,54.146H72.012c-29.863,0-54.302-24.355-54.302-54.146v-1.079
		C17.71,38.701,42.148,14.341,72.012,14.341z"/>
	<g>
		<g>
			<path fill="#F07F13" d="M63.301,63.369v19.072h-6.196v17.227H35.586V53.672c0-7.066,1.465-12.788,4.399-17.173
				c2.51-3.779,5.884-6.567,10.122-8.374c4.136-1.729,8.55-2.593,13.247-2.593c4.522,0,8.594,0.767,12.217,2.305
				c3.618,1.538,6.401,3.682,8.345,6.44c2.896,4.097,4.346,10.312,4.346,18.652v46.738H66.748V54.36
				c0-2.578-0.249-4.365-0.742-5.352c-0.708-1.45-1.997-2.173-3.867-2.173c-1.982,0-3.374,0.757-4.189,2.275
				c-0.566,1.025-0.845,2.773-0.845,5.249v9.009H63.301z"/>
			<path fill="#F07F13" d="M146.923,99.668h-19.819V69.834c0-3.037-1.201-4.556-3.599-4.556c-1.484,0-2.544,0.601-3.184,1.797
				c-0.459,0.85-0.688,1.768-0.688,2.759v29.834H99.814V70.205c0-6.216,1.909-11.587,5.723-16.113
				c4.697-5.581,10.654-8.369,17.861-8.369c4.448,0,8.564,1.113,12.344,3.34c7.456,4.346,11.182,11.919,11.182,22.729V99.668z"/>
			<path fill="#F07F13" d="M187.89,79.844v20.517c-1.626,0.274-3.11,0.42-4.453,0.42c-8.975,0-16.143-3.233-21.514-9.697
				c-4.204-5.088-6.309-11.006-6.309-17.754c0-8.193,2.949-14.976,8.853-20.347c5.264-4.805,11.641-7.207,19.131-7.207
				c5.791,0,11.021,1.465,15.684,4.394c7.632,4.771,11.45,12.632,11.45,23.584v25.913h-19.824V75.186
				c0-2.969-0.669-5.21-2.012-6.729c-1.411-1.626-3.267-2.441-5.566-2.441c-2.08,0-3.887,0.781-5.405,2.334
				c-1.445,1.553-2.173,3.408-2.173,5.566c0,2.261,0.815,4.097,2.441,5.508c1.343,1.201,2.969,1.807,4.873,1.807
				C184.799,81.23,186.406,80.771,187.89,79.844z"/>
			<path fill="#F07F13" d="M242.099,27.334v72.334H222.28V27.334H242.099z"/>
			<path fill="#F07F13" d="M273.525,46.836v52.832h-19.819V46.836H273.525z M263.828,23.252c2.934,0,5.386,1.147,7.368,3.442
				c1.587,1.841,2.383,3.906,2.383,6.201c0,2.686-0.991,4.985-2.969,6.89c-1.729,1.626-4.043,2.437-6.939,2.437
				c-3.252,0-5.776-1.04-7.578-3.125c-1.558-1.802-2.334-3.887-2.334-6.255c0-2.612,1.006-4.893,3.023-6.836
				C258.686,24.17,261.04,23.252,263.828,23.252z"/>
			<path fill="#F07F13" d="M318.305,47.578v20.879c-2.226,0-3.887,0.337-4.98,1.006c-0.991,0.635-1.68,1.519-2.065,2.646
				c-0.249,0.781-0.478,2.139-0.693,4.082c-0.845,10.918-5.4,18.438-13.672,22.578c-2.861,1.309-6.162,2.061-9.907,2.275
				c-1.025,0.039-2.383,0.059-4.082,0.059h-2.754V80.117c0.352,0,0.635,0,0.845,0c2.402,0,4.297-0.391,5.674-1.172
				c1.445-0.81,2.436-2.08,2.969-3.813c0.278-0.884,0.474-2.207,0.581-3.975c0.176-3.638,0.391-6.25,0.635-7.842
				c0.742-4.521,2.915-8.232,6.519-11.128c3.677-3.037,8.657-4.575,14.946-4.609H318.305z"/>
			<path fill="#F07F13" d="M343.745,27.334v20.244h8.901v20.928h-8.901c0,3.042,0.244,5.229,0.737,6.572
				c0.918,2.402,2.949,3.867,6.094,4.395c0.498,0.078,1.309,0.107,2.441,0.107v20.83c-1.06,0.039-1.836,0.049-2.334,0.049
				c-6.04,0-11.479-1.816-16.318-5.459c-4.844-3.564-7.949-8.262-9.331-14.092c-0.737-3.071-1.113-6.465-1.113-10.176V27.334
				H343.745z"/>
		</g>
	</g>
	<g>
		<path fill="#FFFFFF" d="M421.611,59.131h20.508c4.414,5.474,6.621,11.269,6.621,17.378c0,3.354-0.713,6.636-2.148,9.829
			c-1.426,3.203-3.418,5.947-5.957,8.242c-5.049,4.59-11.357,6.895-18.916,6.895c-8.945,0-16.728-3.252-23.369-9.756
			c-7.851-7.627-11.767-17.188-11.767-28.667c0-11.343,3.867-20.635,11.602-27.876c6.855-6.431,15.049-9.644,24.59-9.644
			c3.848,0,7.949,0.723,12.295,2.173v21.514c-3.389-1.592-6.504-2.383-9.326-2.383c-5.195,0-9.375,1.641-12.559,4.927
			c-3.037,3.145-4.56,7.153-4.56,12.026c0,5.195,1.592,9.385,4.775,12.563c2.754,2.759,6.572,4.136,11.445,4.136
			c3.389,0,5.088-0.918,5.088-2.759c0-1.45-1.065-2.173-3.184-2.173h-5.137V59.131z"/>
		<path fill="#FFFFFF" d="M484.941,46.304V67.5c-1.387-0.776-2.617-1.162-3.711-1.162c-3.643,0-5.459,2.754-5.459,8.267v25.063
			h-19.824V70.786c0-6.997,1.699-12.593,5.088-16.797c4.385-5.513,10.332-8.267,17.861-8.267
			C480.449,45.723,482.461,45.918,484.941,46.304z"/>
		<path fill="#FFFFFF" d="M516.679,45.723c7.383,0,13.691,2.578,18.916,7.734c2.617,2.578,4.668,5.62,6.152,9.116
			c1.484,3.496,2.227,7.085,2.227,10.757c0,7.451-2.725,13.906-8.164,19.346c-5.371,5.371-11.885,8.057-19.551,8.057
			c-7.773,0-14.365-2.686-19.774-8.057c-2.539-2.578-4.521-5.586-5.957-9.014c-1.426-3.428-2.148-6.924-2.148-10.488
			c0-3.711,0.742-7.305,2.227-10.786c1.484-3.481,3.535-6.455,6.152-8.931C502.196,48.301,508.837,45.723,516.679,45.723z
			 M516.093,65.278c-2.012,0-3.76,0.737-5.244,2.222c-1.553,1.523-2.334,3.428-2.334,5.723c0,2.192,0.762,4.062,2.285,5.615
			c1.484,1.562,3.262,2.334,5.352,2.334c2.119,0,3.916-0.771,5.4-2.334c1.523-1.553,2.285-3.403,2.285-5.562
			c0-2.295-0.781-4.219-2.334-5.776C520.048,66.016,518.251,65.278,516.093,65.278z"/>
		<path fill="#FFFFFF" d="M552.235,47.578h19.824v29.834c0,2.998,1.201,4.502,3.604,4.502c1.484,0,2.539-0.596,3.174-1.797
			c0.459-0.82,0.693-1.719,0.693-2.705V47.578h19.815v29.463c0,6.182-1.904,11.553-5.723,16.113
			c-4.658,5.547-10.615,8.32-17.861,8.32c-4.443,0-8.565-1.113-12.344-3.34c-7.451-4.346-11.182-11.904-11.182-22.686V47.578z"/>
		<path fill="#FFFFFF" d="M629.55,119.219h-19.814V75.132c0-8.091,2.119-14.678,6.357-19.766c2.686-3.213,6.045-5.654,10.068-7.314
			c3.643-1.519,7.363-2.275,11.182-2.275c3.779,0,7.422,0.732,10.918,2.197c3.496,1.465,6.514,3.525,9.062,6.172
			c5.117,5.303,7.685,11.66,7.685,19.077c0,3.887-0.81,7.627-2.412,11.211c-1.611,3.584-3.877,6.689-6.807,9.297
			c-5.195,4.697-11.172,7.051-17.92,7.051c-1.201,0-2.969-0.127-5.293-0.371V78.574c1.621,1.309,3.242,1.963,4.873,1.963
			c1.768,0,3.34-0.586,4.717-1.748c1.836-1.553,2.754-3.55,2.754-5.986c0-2.017-0.703-3.73-2.119-5.142
			c-1.553-1.553-3.467-2.334-5.723-2.334c-2.725,0-4.756,1.221-6.094,3.657c-0.957,1.694-1.436,3.994-1.436,6.89V119.219z"/>
	</g>
</g>
</svg>
