<?xml version="1.0" encoding="utf-8"?>
<!-- Generator: Adobe Illustrator 17.0.0, SVG Export Plug-In . SVG Version: 6.00 Build 0)  -->
<!DOCTYPE svg PUBLIC "-//W3C//DTD SVG 1.1//EN" "http://www.w3.org/Graphics/SVG/1.1/DTD/svg11.dtd">
<svg version="1.1" id="Layer_1" xmlns="http://www.w3.org/2000/svg" xmlns:xlink="http://www.w3.org/1999/xlink" x="0px" y="0px"
	 width="2910.927px" height="1458.639px" viewBox="0 0 2910.927 1458.639" enable-background="new 0 0 2910.927 1458.639"
	 xml:space="preserve">
<g>
	<g>
		<path fill="#6AB5C0" d="M1936.731,1105.054l-6.451,11.909c59.683,31.805,121.08,52.622,182.837,61.443
			c25.555,3.654,51.336,5.481,76.599,5.481c203.746,0,385.997-122.57,453.618-304.933l-65.637-24.314
			c-57.47,155.093-213.355,259.3-387.981,259.3c-21.993,0-44.434-1.624-66.721-4.714
			c-118.396-16.983-232.188-81.561-338.132-191.972l-38.639,37.036C1798.373,1010.072,1862.07,1064.657,1936.731,1105.054z"/>
		<path fill="#6AB5C0" d="M2414.756,288.421c175.596,81.63,289.118,254.272,289.118,439.862c0,93.876-27.539,184.731-79.553,262.73
			c-19.78,29.682-43.194,57.54-69.518,82.734l-32.232-33.652c23.91-22.873,45-48.091,62.954-74.932
			c46.938-70.372,71.705-152.229,71.705-236.88c0-170.071-100.419-322.413-262.12-397.615L2414.756,288.421z"/>
		<path fill="#6AB5C0" d="M1559.303,670.99l20.21,47.187c1.85,3.654,4.4,8.525,7.444,14.256
			c35.459-67.014,221.656-394.321,527.874-438.035c24.97-3.608,50.795-11.773,75.112-11.773
			c71.389,0.044,139.754,15.02,203.294,44.614l23.367-42.767c-71.005-32.999-147.221-49.758-226.661-49.802
			c-26.934,0-54.585,1.984-82.193,5.908c-295.505,42.226-481.859,312.467-550.587,431.334L1559.303,670.99z"/>
		<path fill="#F37B21" d="M1494.525,443.176c59.907-81.38,126.018-151.845,196.912-209.408l-17.122-21.09
			c-70.148,56.976-135.673,126.02-195.176,205.551C1357.204,251.948,1154.45,54.722,860.505,12.768l-6.948,48.719
			c300.489,42.947,501.709,255.378,621.345,436.162C1480.494,506.153,1494.525,443.176,1494.525,443.176z"/>
		<path fill="#EEB227" d="M709.403,240.559c38.75-2.55,78.336-1.039,117.876,4.578c90.201,12.856,177.739,48.945,260.046,107.164
			l25.578-36.159c-88.125-62.298-182.093-100.914-279.399-114.853c-29.188-4.197-58.78-6.294-87.741-6.294
			c-12.181,0-24.314,0.473-36.359,1.24V240.559z"/>
		<path fill="#F37B21" d="M1535.892,681.051l23.411-10.061l20.21,47.187c15.112,29.772,71.887,134.793,166.71,236.113l38.639-37.036
			c-83.164-86.681-133.192-172.596-150.764-205.574l-71.005-123.807l-60.63,34.78L1535.892,681.051z"/>
		<path fill="#6AB5C0" d="M745.763,279.94c25.15,0,50.592,1.873,75.742,5.481c316.052,45.134,500.963,365.99,534.775,429.824
			l-48.901,25.917c-19.42-36.563-198.083-358.772-493.724-400.975c-22.531-3.247-45.335-4.917-67.892-4.917V279.94z"/>
		<path fill="#0E8B9A" d="M305.427,851.526c21.067,68.388,60.36,131.501,113.638,182.544
			c69.832,66.788,158.499,109.464,256.482,123.47l-8.978,62.706c-111.178-15.879-211.868-64.464-291.241-140.456
			c-61.103-58.44-106.191-130.868-130.485-209.588L305.427,851.526z"/>
		<path fill="#0E8B9A" d="M1151.406,1052.996l29.818,33.969c-107.501,94.419-224.453,151.212-347.561,168.761
			c-29.144,4.197-58.602,6.248-87.654,6.248c-150.018,0-290.562-55.352-395.649-155.973l31.193-32.729
			c96.719,92.569,226.146,143.5,364.457,143.5c26.91,0,54.248-1.94,81.156-5.82
			C941.548,1194.646,1050.603,1141.504,1151.406,1052.996z"/>
		<path fill="#EEB227" d="M1381.16,612.413l156.876,74.682l-37.332,78.449c-24.201,50.952-115.779,228.128-277.096,369.734
			l-65.254,57.336l-114.629-130.598l65.231-57.315c139.913-122.747,220.19-282.961,234.872-313.839L1381.16,612.413z"/>
		<path fill="#0E8B9A" d="M2709.245,518.785c28.961,66.132,43.711,136.573,43.711,209.498c0,144.357-58.33,279.646-164.294,380.943
			c-36.992,35.392-78.72,65.57-124.103,89.751l-25.488-47.954c40.94-21.834,78.673-49.104,112.125-81.02
			c95.072-90.968,147.47-212.318,147.47-341.72c0-65.367-13.175-128.478-39.136-187.71L2709.245,518.785z"/>
		<path fill="#EEB227" d="M2522.257,1039.754l32.796,34.285c-96.969,92.749-226.754,143.837-365.336,143.837
			c-27.044,0-54.359-1.961-81.45-5.774c-66.155-9.518-131.478-31.486-194.136-65.365l22.6-41.683
			c57.674,31.172,117.627,51.382,178.213,60.02c24.857,3.564,49.961,5.368,74.772,5.368
			C2316.028,1170.442,2434.243,1124.068,2522.257,1039.754z"/>
		<path fill="#EEB227" d="M2847.015,728.282h29.008c0,178.236-71.795,345.103-202.236,469.881l-20.03-20.977
			C2778.354,1058.003,2847.015,898.534,2847.015,728.282z"/>
		<path fill="#0E8B9A" d="M1701.249,1223.201c116.996,93.562,245.271,150.764,381.193,170.205
			c35.57,5.054,71.659,7.604,107.275,7.604c140.816,0,276.015-39.586,390.96-114.472l20.977,32.322
			c-121.103,79.013-263.633,120.786-411.937,120.786c-37.42,0-75.269-2.73-112.689-8.031
			c-142.87-20.39-277.392-80.41-399.869-178.28L1701.249,1223.201z"/>
		<path fill="#0E8B9A" d="M1429.789,972.56l76.195,53.775c-121.916,172.732-332.497,387.891-643.428,432.304l-13.103-92.298
			C1127.452,1326.688,1318.453,1130.316,1429.789,972.56z"/>
		<path fill="#6AB5C0" d="M1342.588,961.464l53.842,40.734c-106.667,141.066-288.377,317.068-548.42,354.171
			c-33.902,4.827-68.164,7.264-101.999,7.264c-87.674,0-172.596-15.992-252.445-47.525l24.88-62.82
			c71.862,28.398,148.418,42.813,227.564,42.813c30.677,0,61.713-2.257,92.368-6.587
			C1075.664,1255.636,1243.524,1092.423,1342.588,961.464z"/>
		<path fill="#6AB5C0" d="M1451.218,851.436l75.336,30.721l-22.33,55.08l-1.963,3.047
			c-97.373,154.123-310.908,419.786-646.923,467.74c-36.246,5.188-73.059,7.804-109.328,7.804v-81.45
			c32.414,0,65.367-2.323,97.826-6.971c286.774-40.937,477.595-254.382,587.667-427.59L1451.218,851.436z"/>
		<path fill="#6AB5C0" d="M1452.435,934.893l39.066,47.885c64.871,91.848,137.433,170.228,215.815,232.888l-36.158,45.247
			c-82.397-65.861-158.59-147.921-226.437-243.894l-37.082-45.474L1452.435,934.893z"/>
		<path fill="#F37B21" d="M254.182,1206.375c131.115,125.568,305.857,194.635,491.828,194.635c35.595,0,71.661-2.55,107.277-7.604
			l5.435,38.21c-37.466,5.301-75.336,8.031-112.712,8.031c-196.032,0-380.153-72.945-518.602-205.347L254.182,1206.375z"/>
		<path fill="#0E8B9A" d="M2091.824,129.178l14.052,98.546c-393.868,56.209-590.194,515.084-592.111,519.708
			c-8.752,21-219.31,515.648-669.93,579.976l-14.052-98.523C1224.938,1172.496,1420,713.824,1421.894,709.2
			C1430.692,688.133,1641.317,193.508,2091.824,129.178z"/>
		<path fill="#0E8B9A" d="M2505.745,228.807l-43.15,74.343c-106.078-61.577-228.918-84.607-355.365-66.494l-12.179-85.081
			c-82.42,11.775-162.853,39.97-239.205,83.817l72.065,125.524c60.427-34.669,123.45-56.909,187.597-66.044
			c24.901-3.541,49.938-5.345,74.435-5.345c125.408,0,242.587,46.058,329.991,129.741c42.314,40.51,75.38,87.494,98.184,139.417
			l124.283-54.382c-29.661-67.758-72.945-129.808-128.635-183.063l6.271-6.564C2585.188,281.406,2546.888,252.671,2505.745,228.807z
			"/>
		<path fill="#0E8B9A" d="M2189.943,106.914c172.642,0,334.682,64.104,456.325,180.402l-27.384,28.601
			c-114.222-109.261-266.495-169.441-428.897-169.508c-31.285,0-63.157,2.277-94.666,6.834
			c-324.87,46.374-521.265,321.306-609.683,481.769l-22.42,53.052l-36.383-15.429l23.661-55.78
			c91.712-166.824,296.745-453.868,639.185-502.746C2123.109,109.351,2156.831,106.914,2189.943,106.914z"/>
		<path fill="#0E8B9A" d="M2189.943,0c200.34,0.046,388.614,74.659,530.174,210.131l-50.075,52.285
			c-128.027-122.523-298.549-189.988-480.099-190.057c-34.736,0-70.171,2.573-105.11,7.58
			c-135.472,19.284-262.933,77.004-379.119,171.332l-45.608-56.163c126.448-102.72,265.934-165.604,414.508-186.83
			C2112.891,2.774,2151.733,0,2189.943,0z"/>
		<path fill="#EEB227" d="M2081.605,57.563l9.001,62.66c-291.962,41.66-484.973,258.806-595.654,433.884
			c-3.451,5.908-33.179,57.607-44.615,79.306l-56.029-29.458c12.586-24,44.751-79.713,46.127-82.08l0.677-1.06
			C1558.83,334.391,1765.554,102.697,2081.605,57.563z"/>
		<path fill="#6AB5C0" d="M2503.445,232.754c181.754,105.494,290.158,290.744,290.158,495.528c0,29.772-2.301,59.683-6.902,88.778
			l-44.707-7.058c4.241-26.82,6.428-54.292,6.428-81.72c0-188.477-100.08-359.089-267.645-456.439L2503.445,232.754z"/>
		<path fill="#F37B21" d="M2721.447,806.686l85.757,13.623c-24.811,156.492-111.335,294.761-243.559,389.291
			c-134.229,96.112-301.457,135.742-470.895,111.562c-38.189-5.481-76.195-14.39-113.051-26.481l27.158-82.554
			c31.985,10.535,65.051,18.293,98.163,23.03C2405.642,1277.966,2676.516,1089.852,2721.447,806.686z"/>
		<path fill="#EEB227" d="M2732.656,197.025c79.172,75.832,139.239,164.837,178.271,264.647l-101.061,39.586
			c-33.315-84.99-84.561-160.936-152.319-225.761L2732.656,197.025z"/>
		<path fill="#6AB5C0" d="M2189.943,49.781c187.461,0.046,363.486,69.742,495.798,196.302
			c120.403,115.169,193.302,268.594,205.574,431.898l0.032,1.196l1.705,47.885l-63.224,2.37l-1.693-47.321
			c-11.165-147.471-77.299-286.03-186.174-390.33c-120.449-115.146-280.956-178.686-452.018-178.686
			c-32.865,0-66.247,2.437-99.336,7.128l-9.001-62.66C2117.674,52.375,2154.101,49.781,2189.943,49.781z"/>
		<path fill="#EEB227" d="M1899.175,271.211l19.67,34.239l-17.122,9.835c-223.55,128.321-348.351,373.568-371.155,421.389
			l-8.504,17.907l-35.613-17.006l8.502-17.819c23.64-49.735,153.425-304.637,387.08-438.732L1899.175,271.211z"/>
		<path fill="#0E8B9A" d="M1405.428,754.197c2.01,4.783,16.083,37.986,42.857,86.637l-10.059,5.527
			c93.266,169.145,301.616,460.363,649.493,510.008c33.81,4.827,68.164,7.264,101.997,7.264v-67.531
			c-30.675,0-61.78-2.257-92.456-6.587c-37.579-5.414-73.419-14.006-107.57-25.127l24.723-75.156
			c-321.149-105.628-482.695-483.213-484.206-486.89c-8.955-21.383-223.28-525.03-683.892-590.781L827.279,245.34
			C1211.043,300.15,1403.58,749.8,1405.428,754.197z"/>
		<path fill="#EEB227" d="M137.772,728.282h54.246c0,149.478,65.93,292.458,180.987,392.222
			c123.517,107.208,291.174,154.802,459.982,130.778l7.645,53.752c-184.394,26.278-367.771-26.031-503.263-143.523
			C210.468,1051.416,137.772,893.48,137.772,728.282z"/>
		<rect x="2111.65" y="500.469" opacity="0" fill="#EEB227" width="146.817" height="455.492"/>
		<rect x="1957.302" y="654.794" opacity="0" fill="#0E8B9A" width="455.468" height="146.817"/>
		<path fill="#6AB5C0" d="M3.044,661.922l58.036,5.368c-1.848,20.053-2.797,40.579-2.797,60.993
			c0,178.732,71.978,346.004,202.62,470.964l-40.24,42.18C78.36,1105.278,0,923.028,0,728.282
			C0,706.042,1.037,683.735,3.044,661.922z"/>
		<path fill="#0E8B9A" d="M202.664,628.022l37.893,7.532c-6.021,30.608-9.112,62.05-9.112,93.495
			c0,131.545,53.165,254.925,149.861,347.404l-26.728,27.924c-104.277-99.833-161.77-233.159-161.77-375.328
			C192.808,695.124,196.169,661.132,202.664,628.022z"/>
		<path fill="#F37B21" d="M269.024,618.751l87.651,22.284c-7.218,28.331-10.828,57.676-10.828,87.247
			c0,206.971,179.546,375.442,400.162,375.442c21.45,0,43.466-1.626,65.277-4.714c5.797-0.859,11.526-1.737,17.279-2.843
			l16.33,89.005c-6.971,1.286-13.826,2.437-20.864,3.407c-26.03,3.698-52.262,5.571-78.022,5.571
			c-270.534,0-490.655-209.001-490.655-465.867C255.355,691.133,259.956,654.344,269.024,618.751z"/>
		<path fill="#0E8B9A" d="M993.877,1083.265l10.421,18.833c207.715-115.146,329.358-340.569,351.621-384.574l21.947-44.774
			l23.321,11.412l9.565-21.293l-82.51-37.057l-37.036,82.394c-21.744,40.33-190.755,337.865-462.64,387.96l8.209,44.434
			C890.12,1130.768,942.899,1111.526,993.877,1083.265z"/>
		<path fill="#6AB5C0" d="M745.763,85.937c34.126,0,68.862,2.504,103.283,7.398c153.582,21.97,296.022,93.338,423.53,212.115
			l-55.532,59.593c-115.058-107.275-242.746-171.535-379.546-191.092c-36.609-5.144-73.285-7.174-109.351-6.317l-1.894-81.427
			C732.747,86.074,739.265,85.937,745.763,85.937z"/>
	</g>
</g>
</svg>
