<?xml version="1.0" encoding="UTF-8" standalone="no"?>
<svg
   xmlns:dc="http://purl.org/dc/elements/1.1/"
   xmlns:cc="http://creativecommons.org/ns#"
   xmlns:rdf="http://www.w3.org/1999/02/22-rdf-syntax-ns#"
   xmlns:svg="http://www.w3.org/2000/svg"
   xmlns="http://www.w3.org/2000/svg"
   version="1.1"
   id="Layer_1"
   x="0px"
   y="0px"
   width="488.122px"
   height="215.085px"
   viewBox="0 0 488.122 215.085"
   enable-background="new 0 0 488.122 215.085"
   xml:space="preserve"><metadata
     id="metadata3550"><rdf:RDF><cc:Work
         rdf:about=""><dc:format>image/svg+xml</dc:format><dc:type
           rdf:resource="http://purl.org/dc/dcmitype/StillImage" /><dc:title></dc:title></cc:Work></rdf:RDF></metadata><defs
     id="defs3548" /><path
     id="path9252"
     fill="#C3C3C3"
     d="M67.883,173.465l-7.254,2.297l4.353,12.091  c0,0-3.506,4.474-6.045,3.627c-2.539-0.846-5.683-7.738-7.375-12.091s-3.144-6.529-4.957-6.771s-6.287,0.846-8.947,1.935  c-2.66,1.088-8.343,4.474-8.343,4.474l8.947,7.98l-4.836,16.685c0,0,11.365-8.584,13.784-9.068c2.418-0.484,3.748-0.725,6.166,2.418  c2.418,3.144,4.595,12.091,10.035,12.695c5.441,0.605,16.444-10.761,16.444-10.761l-0.967-6.529c0,0,15.114-6.65,26.721-6.65  s28.897,0.967,32.041,0.121c3.144-0.846,14.267-5.078,14.267-5.078l-0.605,7.134c0,0,21.643-11.728,25.995-10.882  c4.353,0.846,18.499,10.519,18.499,10.519l-3.869-14.146l6.045-10.035c0,0-14.751-4.474-18.378-3.869  c-3.627,0.605-14.872,5.199-14.872,5.199s-0.605-2.902,0.363-5.32c0.967-2.418,1.33-5.924,1.33-5.924l8.584-0.363l-3.265-12.816  l12.333-2.055l-6.771-11.849l12.937-4.232l-10.519-11.244l13.421-6.287l-12.695-8.464l12.333-8.705l-15.476-5.804l11.728-11.607  l-16.323-1.088l9.914-14.872l-17.532,3.144l8.101-17.774l-17.894,8.222l5.924-20.313l-17.048,13.3l3.023-22.973l-14.872,16.806  l-0.967-23.214l-11.849,19.95l-4.353-22.973l-7.738,21.763L98.11,8.546l-4.474,23.698l-11.607-19.95l-0.967,24.423L66.553,19.186  l4.474,22.368L52.89,29.222l6.65,19.466l-18.499-7.134l9.794,17.774l-18.862-2.539l10.035,13.904l-16.202,2.539l11.486,11.124  l-14.388,6.166l11.97,8.101l-11.728,9.31l12.333,6.045l-8.826,11.124l12.454,3.506l-6.045,12.574l13.058,1.451l-3.265,12.937  l11.607,0.121l0.242,11.97l11.365-2.055L67.883,173.465L67.883,173.465z" /><path
     id="path22677"
     d="  M162.368,163.147l-11.515-2.01l-2.251,12.03l-10.92-4.331l-4.442,11.337l-9.906-6.486l-6.463,10.209l-8.511-8.391l-8.235,8.689  l-6.789-9.973l-9.691,6.835l-4.806-11.173l-10.774,4.718l-2.638-11.943l-11.444,2.419l-0.369-12.254l-11.673,0.028l3.395-12.835  l-12.935-1.623l5.852-12.458l-12.522-3.677l9.137-11.145l-12.682-6.046l11.938-9.186L21.901,87.48l14.679-5.647L24.89,70.172  l16.314-2.081L31.036,53.808l18.775,2.42l-9.708-17.209L58.681,45.8l-6.937-19.428l18.179,12.145l-4.413-22.164l14.622,17.679  l0.74-24.685l11.88,20.08l4.488-23.804l9.251,21.491l7.495-21.789l4.814,22.579l11.665-19.441l0.61,23.284l14.97-16.829  l-3.038,22.818l17.12-13.295l-6.048,20.658l18.09-8.432l-8.084,17.779l17.624-3.321l-10.047,14.93l16.718,1.205l-11.852,11.64  l15.397,5.552l-12.678,8.939l12.962,8.649l-13.692,6.141l10.703,11.167l-12.859,4.306l6.713,12.057l-12.358,1.782l3.291,13.007  l-11.667,0.388L162.368,163.147L162.368,163.147z" /><linearGradient
     id="path10371_1_"
     gradientUnits="userSpaceOnUse"
     x1="-152.5729"
     y1="340.6335"
     x2="-92.416"
     y2="135.5956"
     gradientTransform="matrix(0.7092 0 0 -0.7437 193.8556 272.8231)"><stop
       offset="0"
       style="stop-color:#FFDA01"
       id="stop3467" /><stop
       offset="1"
       style="stop-color:#FF9E01"
       id="stop3469" /></linearGradient><path
     id="path10371"
     fill="url(#path10371_1_)"
     d="  M160.481,160.826l-11.222-1.956l-2.194,11.706l-10.643-4.215l-4.329,11.032l-9.654-6.311l-6.299,9.935l-8.295-8.165l-8.026,8.455  l-6.616-9.705l-9.445,6.651l-4.684-10.872l-10.5,4.591l-2.571-11.621l-11.153,2.354l-0.36-11.924l-11.376,0.027l3.309-12.49  l-12.606-1.579l5.703-12.123l-12.204-3.578l8.905-10.846l-12.36-5.884l11.634-8.939l-11.911-8.176l14.306-5.495L26.497,70.352  l15.9-2.025l-9.91-13.898l18.298,2.355l-9.461-16.747l18.105,6.598L52.668,27.73l17.717,11.818L66.085,17.98l14.251,17.203  l0.721-24.021l11.578,19.54l4.374-23.164l9.016,20.913l7.304-21.203l4.692,21.972l11.369-18.918l0.595,22.658l14.589-16.377  l-2.961,22.205l16.685-12.938l-5.894,20.102l17.63-8.205l-7.879,17.301l17.176-3.232l-9.792,14.528l16.293,1.173l-11.55,11.327  l15.006,5.403l-12.356,8.698l12.633,8.416l-13.344,5.976l10.431,10.866l-12.532,4.19l6.542,11.733l-12.044,1.734l3.207,12.658  l-11.371,0.377L160.481,160.826L160.481,160.826z" /><linearGradient
     id="path13898_1_"
     gradientUnits="userSpaceOnUse"
     x1="-233.6564"
     y1="158.7679"
     x2="-225.2378"
     y2="109.2187"
     gradientTransform="matrix(1 0 0 -1 329.8243 198.049)"><stop
       offset="0"
       style="stop-color:#FFFFFF"
       id="stop3474" /><stop
       offset="1"
       style="stop-color:#FFFFFF;stop-opacity:0"
       id="stop3476" /></linearGradient><path
     id="path13898"
     fill="url(#path13898_1_)"
     d="  M167.429,100.532c0,34.804-27.245,63.019-60.854,63.019s-60.854-28.215-60.854-63.019l0,0c0-34.804,27.245-63.019,60.854-63.019  S167.429,65.727,167.429,100.532L167.429,100.532z" /><radialGradient
     id="path14783_1_"
     cx="-174.2735"
     cy="-4.0836"
     r="41.8522"
     gradientTransform="matrix(1.1609 0 0 -0.592 308.1707 138.283)"
     gradientUnits="userSpaceOnUse"><stop
       offset="0"
       style="stop-color:#F8A900"
       id="stop3480" /><stop
       offset="0.8571"
       style="stop-color:#FFCE02;stop-opacity:0.498"
       id="stop3482" /><stop
       offset="1"
       style="stop-color:#FFDA01;stop-opacity:0"
       id="stop3484" /></radialGradient><path
     id="path14783"
     fill="url(#path14783_1_)"
     d="  M154.44,140.7c0,13.683-21.753,24.775-48.587,24.775S57.266,154.383,57.266,140.7l0,0c0-13.683,21.753-24.775,48.587-24.775  S154.44,127.018,154.44,140.7L154.44,140.7z" /><path
     id="path9492"
     d="M115.409,164.192  c19.36-2.56,14.219-23.69,19.507-41.26c5.452-18.115,28.631-45.464,19.691-56.059c-10.432-12.363-18.335-6.34-24.341-10.461  c-6.006-4.121-9.483-16.484-23.076-16.167c-13.593,0.317-15.173,16.167-21.18,16.167c-6.006,0-14.857-8.242-22.444,6.34  c-5.363,10.307,0.678,43.206,8.535,61.181C82.217,147.074,93.597,164.826,115.409,164.192L115.409,164.192z" /><radialGradient
     id="path21800_1_"
     cx="7.9354"
     cy="121.797"
     r="45.3896"
     gradientTransform="matrix(2.4421 0.7612 0.5059 -1.623 9.463 267.1573)"
     gradientUnits="userSpaceOnUse"><stop
       offset="0"
       style="stop-color:#FFB904"
       id="stop3489" /><stop
       offset="1"
       style="stop-color:#F89900"
       id="stop3491" /></radialGradient><path
     id="path21800"
     fill="url(#path21800_1_)"
     d="  M114.298,161.779c18.479-2.471,13.572-22.862,18.619-39.819c5.204-17.482,27.328-43.876,18.795-54.101  c-9.957-11.931-17.5-6.119-23.233-10.096c-5.733-3.977-9.052-15.908-22.026-15.602C93.479,42.466,91.97,57.763,86.238,57.763  c-5.733,0-14.181-7.954-21.422,6.119c-5.119,9.947,0.647,41.698,8.147,59.045C82.617,145.259,93.479,162.391,114.298,161.779  L114.298,161.779z" /><path
     id="path3090"
     d="M79.156,196.166c0,0-10.526,11.269-16.476,10.676s-9.153-17.2-15.56-15.421  s-15.103,10.083-15.103,10.083l5.492-17.2l-10.068-8.897c0,0,14.645-8.897,19.222-5.338c4.577,3.559,6.407,20.759,12.357,20.166  s11.899-13.048,14.645-13.048C76.41,177.186,79.156,195.573,79.156,196.166z" /><path
     id="path3965"
     fill="#0FF000"
     d="M76.638,194.028c0,0-9.501,10.204-14.872,9.667  c-5.37-0.537-8.262-15.574-14.046-13.963c-5.783,1.611-13.633,9.129-13.633,9.129l4.957-15.574l-9.088-8.055  c0,0,13.219-8.055,17.35-4.833s5.783,18.796,11.154,18.259c5.37-0.537,10.741-11.815,13.219-11.815S76.638,193.491,76.638,194.028  L76.638,194.028z" /><path
     id="path4840"
     d="M150.55,168.29c1.831,8.304-0.458,16.607-0.458,16.607  s18.764-9.49,25.171-10.676c6.407-1.186,19.679,10.676,19.679,10.676l-4.119-14.235l5.95-10.083c0,0-16.933-5.338-22.425-2.966  C168.856,159.986,151.008,167.103,150.55,168.29z" /><path
     id="path5715"
     fill="#FB0000"
     d="M152.345,167.507c1.687,7.067-0.422,14.135-0.422,14.135  s17.292-8.077,23.197-9.087c5.905-1.01,18.136,9.087,18.136,9.087l-3.796-12.116l5.483-8.582c0,0-15.605-4.543-20.666-2.524  C169.215,160.439,152.767,166.497,152.345,167.507z" /><path
     id="path6602"
     stroke="#000000"
     stroke-width="0.4811"
     d="M77.783,194.386l-12.357,2.372  l7.78-11.862L77.783,194.386z" /><path
     id="path7477"
     stroke="#000000"
     stroke-width="0.4811"
     d="M151.008,182.524l14.187-12.455  l-12.814-4.745L151.008,182.524z" /><path
     id="path1338"
     d="M59.934,173.035l4.577,13.048l0.458,12.455  c0,0,11.441-11.269,28.832-14.235c17.391-2.966,31.121,0,41.647-1.186c10.526-1.186,31.121-13.048,31.121-13.048  s-3.661-7.117-2.746-11.862c0.915-4.745,2.288-12.455,2.288-12.455s-28.375,23.131-36.613,21.945s-29.29-5.931-40.274-2.966  S60.392,171.848,59.934,173.035z" /><path
     id="path2213"
     fill="#FFFFFF"
     d="M61.536,172.925l4.439,11.436l0.444,10.916  c0,0,11.098-9.876,27.966-12.475c16.868-2.599,30.186,0,40.396-1.04c10.21-1.04,30.186-11.436,30.186-11.436  s-3.551-6.238-2.663-10.396c0.888-4.158,2.22-10.916,2.22-10.916S137,169.286,129.01,168.246c-7.99-1.04-28.41-5.198-39.064-2.599  C79.292,168.246,61.98,171.885,61.536,172.925L61.536,172.925z" /><g
     enable-background="new    "
     id="g3502"><path
       d="M104.931,177.969v0.976h-5.463c-0.008-0.244,0.032-0.479,0.118-0.705c0.139-0.372,0.361-0.738,0.668-1.099   c0.307-0.361,0.749-0.778,1.328-1.252c0.897-0.736,1.505-1.32,1.82-1.75c0.316-0.431,0.474-0.837,0.474-1.221   c0-0.402-0.144-0.741-0.431-1.018c-0.288-0.276-0.663-0.414-1.125-0.414c-0.488,0-0.88,0.146-1.173,0.439s-0.441,0.699-0.445,1.218   l-1.043-0.107c0.071-0.777,0.34-1.37,0.807-1.778c0.466-0.408,1.092-0.611,1.877-0.611c0.793,0,1.421,0.22,1.883,0.659   s0.693,0.984,0.693,1.635c0,0.331-0.067,0.656-0.203,0.976c-0.135,0.319-0.359,0.655-0.674,1.009   c-0.313,0.354-0.835,0.838-1.563,1.454c-0.609,0.512-1,0.858-1.173,1.04c-0.173,0.183-0.315,0.366-0.429,0.55H104.931z"
       id="path3504" /><path
       d="M106.019,174.869c0-0.977,0.101-1.764,0.302-2.359c0.2-0.595,0.499-1.055,0.896-1.378s0.896-0.484,1.497-0.484   c0.443,0,0.832,0.089,1.167,0.268c0.334,0.179,0.61,0.436,0.829,0.772c0.218,0.336,0.389,0.746,0.513,1.229   c0.124,0.483,0.186,1.134,0.186,1.953c0,0.97-0.1,1.753-0.299,2.349s-0.497,1.056-0.894,1.381s-0.896,0.487-1.502,0.487   c-0.797,0-1.423-0.285-1.877-0.856C106.291,177.542,106.019,176.421,106.019,174.869z M107.062,174.869   c0,1.357,0.158,2.26,0.476,2.709c0.318,0.449,0.71,0.674,1.176,0.674s0.857-0.226,1.176-0.677c0.317-0.451,0.476-1.353,0.476-2.706   c0-1.36-0.158-2.264-0.476-2.711c-0.318-0.447-0.714-0.671-1.188-0.671c-0.466,0-0.838,0.197-1.116,0.592   C107.236,172.583,107.062,173.512,107.062,174.869z"
       id="path3506" /><path
       d="M116.262,178.945h-1.016v-6.466c-0.244,0.232-0.564,0.466-0.961,0.699c-0.396,0.232-0.752,0.407-1.068,0.523v-0.98   c0.567-0.267,1.063-0.59,1.488-0.97s0.726-0.748,0.902-1.104h0.654V178.945z"
       id="path3508" /><path
       d="M118.86,176.78l1.065-0.09c0.079,0.519,0.262,0.908,0.55,1.17c0.287,0.261,0.634,0.392,1.04,0.392   c0.488,0,0.901-0.185,1.24-0.553c0.338-0.368,0.507-0.856,0.507-1.466c0-0.578-0.162-1.035-0.487-1.369   c-0.325-0.335-0.751-0.502-1.277-0.502c-0.327,0-0.622,0.074-0.885,0.223s-0.47,0.341-0.62,0.578l-0.953-0.124l0.801-4.245h4.109   v0.97h-3.298l-0.445,2.221c0.496-0.346,1.017-0.519,1.562-0.519c0.722,0,1.331,0.25,1.827,0.75s0.744,1.143,0.744,1.928   c0,0.748-0.218,1.395-0.654,1.939c-0.53,0.669-1.253,1.003-2.17,1.003c-0.752,0-1.365-0.21-1.841-0.631   S118.928,177.475,118.86,176.78z"
       id="path3510" /></g><g
     id="g3512"><path
       d="M231.259,83.836h14.93v5.648h-21.961V55.359h7.031V83.836z"
       id="path3514" /><path
       d="M257.697,89.484h-7.031V55.359h7.031V89.484z"
       id="path3516" /><path
       d="M291.962,89.484h-7.031l-13.688-22.453v22.453h-7.031V55.359h7.031l13.711,22.5v-22.5h7.008V89.484z"
       id="path3518" /><path
       d="M323.931,55.359v22.477c0,3.734-1.168,6.688-3.504,8.859s-5.527,3.258-9.574,3.258c-3.984,0-7.148-1.055-9.492-3.164   s-3.539-5.008-3.586-8.695V55.359h7.031v22.523c0,2.234,0.535,3.863,1.605,4.887s2.551,1.535,4.441,1.535   c3.953,0,5.961-2.078,6.023-6.234V55.359H323.931z"
       id="path3520" /><path
       d="M341.908,67.125l6.398-11.766h8.086l-9.938,16.922l10.195,17.203h-8.18l-6.562-11.953l-6.562,11.953h-8.18l10.195-17.203   l-9.938-16.922h8.086L341.908,67.125z"
       id="path3522" /><path
       d="M372.142,89.484V55.359h10.5c3,0,5.684,0.676,8.051,2.027s4.215,3.273,5.543,5.766s1.992,5.324,1.992,8.496v1.57   c0,3.172-0.652,5.992-1.957,8.461s-3.145,4.383-5.52,5.742s-5.055,2.047-8.039,2.062H372.142z M379.173,61.054v22.781h3.398   c2.75,0,4.852-0.898,6.305-2.695s2.195-4.367,2.227-7.711v-1.805c0-3.469-0.719-6.098-2.156-7.887s-3.539-2.684-6.305-2.684   H379.173z"
       id="path3524" /><path
       d="M422.111,82.453h-12.328l-2.344,7.031h-7.477l12.703-34.125h6.516l12.773,34.125h-7.477L422.111,82.453z M411.681,76.757   h8.531l-4.289-12.773L411.681,76.757z"
       id="path3526" /><path
       d="M443.392,70.734l7.102-15.375h7.688l-11.203,21.75v12.375h-7.148V77.109l-11.203-21.75h7.711L443.392,70.734z"
       id="path3528" /><path
       fill="#3B3C3C"
       d="M251.087,140.053h-12.328l-2.344,7.031h-7.477l12.703-34.125h6.516l12.773,34.125h-7.477L251.087,140.053z    M240.658,134.358h8.531l-4.289-12.773L240.658,134.358z"
       id="path3530" /><path
       fill="#3B3C3C"
       d="M274.923,138.624l7.734-25.664h7.828l-11.883,34.125h-7.336l-11.836-34.125h7.805L274.923,138.624z"
       id="path3532" /><path
       fill="#3B3C3C"
       d="M314.228,132.249h-13.5v9.188h15.844v5.648h-22.875V112.96h22.828v5.695h-15.797v8.133h13.5V132.249z"
       id="path3534" /><path
       fill="#3B3C3C"
       d="M327.728,141.436h14.93v5.648h-21.961V112.96h7.031V141.436z"
       id="path3536" /><path
       fill="#3B3C3C"
       d="M353.72,141.436h14.93v5.648h-21.961V112.96h7.031V141.436z"
       id="path3538" /><path
       fill="#3B3C3C"
       d="M380.158,147.085h-7.031V112.96h7.031V147.085z"
       id="path3540" /><path
       fill="#3B3C3C"
       d="M414.423,147.085h-7.031l-13.688-22.453v22.453h-7.031V112.96h7.031l13.711,22.5v-22.5h7.008V147.085z"
       id="path3542" /><path
       fill="#3B3C3C"
       d="M448.595,130.795c0,3.359-0.594,6.305-1.781,8.836s-2.887,4.484-5.098,5.859s-4.746,2.062-7.605,2.062   c-2.828,0-5.352-0.68-7.57-2.039s-3.938-3.301-5.156-5.824s-1.836-5.426-1.852-8.707v-1.688c0-3.359,0.605-6.316,1.816-8.871   s2.922-4.516,5.133-5.883s4.738-2.051,7.582-2.051s5.371,0.684,7.582,2.051s3.922,3.328,5.133,5.883s1.816,5.504,1.816,8.848   V130.795z M441.47,129.249c0-3.578-0.641-6.297-1.922-8.156s-3.109-2.789-5.484-2.789c-2.359,0-4.18,0.918-5.461,2.754   s-1.93,4.527-1.945,8.074v1.664c0,3.484,0.641,6.188,1.922,8.109s3.125,2.883,5.531,2.883c2.359,0,4.172-0.926,5.438-2.777   s1.906-4.551,1.922-8.098V129.249z"
       id="path3544" /></g></svg>