<?xml version="1.0" encoding="UTF-8" standalone="no"?>
<!-- Created with Inkscape (http://www.inkscape.org/) -->

<svg
   xmlns:dc="http://purl.org/dc/elements/1.1/"
   xmlns:cc="http://creativecommons.org/ns#"
   xmlns:rdf="http://www.w3.org/1999/02/22-rdf-syntax-ns#"
   xmlns:svg="http://www.w3.org/2000/svg"
   xmlns="http://www.w3.org/2000/svg"
   version="1.2"
   width="100%"
   height="100%"
   viewBox="0 0 188.429 75.844"
   id="Layer_1"
   xml:space="preserve"><metadata
     id="metadata3220"><rdf:RDF><cc:Work
         rdf:about=""><dc:format>image/svg+xml</dc:format><dc:type
           rdf:resource="http://purl.org/dc/dcmitype/StillImage" /><dc:title></dc:title></cc:Work></rdf:RDF></metadata><defs
     id="defs3218" /><path
     d="m 34.488,50.755 c 10.405,-3.45 17.933,-13.223 17.933,-24.708 0,-14.356 -11.753,-26.04 -26.2,-26.048 l -0.029,0 C 11.751,0.008 0,11.692 0,26.048 l 0,45.836 c 0,2.189 1.789,3.96 3.994,3.96 l 46.114,0 c 1.617,0 3.066,-0.965 3.688,-2.449 0.618,-1.476 0.276,-3.182 -0.868,-4.314 L 47.188769,63.377251 z M 26.207,7.928 c 10.057,0 18.237,8.131 18.237,18.12 0,9.461 -7.34,17.254 -16.65,18.052 L 8.049,24.477 C 8.853,15.216 16.686,7.928 26.207,7.928 z m -18.229,59.996 0,-32.306 32.502,32.306 z m 138.375,-67.528 -18.968,0 c -2.202,0 -3.994,1.779 -3.994,3.968 l 0,67.519 c 0,2.188 1.787,3.957 3.986,3.961 l 18.984,0 c 2.199,-0.004 3.978,-1.773 3.978,-3.961 l 0,-67.519 c 0,-2.189 -1.784,-3.968 -3.986,-3.968 z m -3.986,67.527 -10.998,0 0,-59.599 10.998,0 z M 86.128,23.75 c -14.454,0 -26.207,11.688 -26.207,26.048 0,14.367 11.753,26.046 26.207,26.046 14.448,0 26.207,-11.679 26.207,-26.046 0,-14.361 -11.759,-26.048 -26.207,-26.048 z m 0,44.174 c -10.057,0 -18.237,-8.131 -18.237,-18.126 0,-9.989 8.18,-18.12 18.237,-18.12 10.049,0 18.229,8.131 18.229,18.12 0,9.995 -8.18,18.126 -18.229,18.126 z m 98.315,-67.528 -18.968,0 c -2.202,0 -3.992,1.779 -3.992,3.968 l 0,67.519 c 0,2.188 1.785,3.957 3.984,3.961 l 18.984,0 c 2.199,-0.004 3.978,-1.773 3.978,-3.961 l 0,-67.519 c 0,-2.189 -1.784,-3.968 -3.986,-3.968 z m -3.986,67.527 -10.998,0 0,-59.599 10.998,0 z"
     id="path3214"
     style="fill:#4d4d4d;fill-opacity:1" /></svg>