<?xml version="1.0" encoding="utf-8"?>
<!-- Generator: Adobe Illustrator 16.0.0, SVG Export Plug-In . SVG Version: 6.00 Build 0)  -->
<!DOCTYPE svg PUBLIC "-//W3C//DTD SVG 1.1//EN" "http://www.w3.org/Graphics/SVG/1.1/DTD/svg11.dtd">
<svg version="1.1" id="Layer_1" xmlns="http://www.w3.org/2000/svg" xmlns:xlink="http://www.w3.org/1999/xlink" x="0px" y="0px"
	 width="437px" height="80px" viewBox="0 0 437 80" enable-background="new 0 0 437 80" xml:space="preserve">
<g>
	<polygon fill-rule="evenodd" clip-rule="evenodd" points="23.04,16.31 39.82,16.31 39.82,12.58 0,12.58 0,16.31 16.84,16.31 
		16.84,64.72 23.04,64.72 	"/>
	<polygon fill-rule="evenodd" clip-rule="evenodd" points="73.61,61 50.33,61 50.33,38.65 72.2,38.65 72.2,34.93 50.33,34.93 
		50.33,16.31 73.61,16.31 73.61,12.58 44.14,12.58 44.14,64.72 73.61,64.72 	"/>
	<polygon fill-rule="evenodd" clip-rule="evenodd" points="166.96,12.58 160.76,12.58 160.76,34.93 131.94,34.93 131.94,12.58 
		125.74,12.58 125.74,64.72 131.94,64.72 131.94,38.65 160.76,38.65 160.76,64.72 166.96,64.72 	"/>
	<polygon fill-rule="evenodd" clip-rule="evenodd" points="307.68,46.1 324.29,46.1 324.29,34.93 307.68,34.93 307.68,23.76 
		325.69,23.76 325.69,12.58 293.47,12.58 293.47,64.72 307.68,64.72 	"/>
	<polygon fill-rule="evenodd" clip-rule="evenodd" points="345.42,46.1 362.03,46.1 362.03,34.93 345.42,34.93 345.42,23.76 
		363.43,23.76 363.43,12.58 331.21,12.58 331.21,64.72 345.42,64.72 	"/>
	<polygon fill-rule="evenodd" clip-rule="evenodd" points="400.06,53.55 382.69,53.55 382.69,42.38 398.77,42.38 398.77,31.2 
		382.69,31.2 382.69,23.76 400.06,23.76 400.06,12.58 368.25,12.58 368.25,64.72 400.06,64.72 	"/>
	<polygon fill-rule="evenodd" clip-rule="evenodd" points="437,53.55 419.63,53.55 419.63,42.38 435.71,42.38 435.71,31.2 
		419.63,31.2 419.63,23.76 437,23.76 437,12.58 405.19,12.58 405.19,64.72 437,64.72 	"/>
	<path fill-rule="evenodd" clip-rule="evenodd" d="M172.13,38.36l-0.01,0.47c0,8.38,2.11,14.83,6.44,19.26
		c4.32,4.42,10.52,6.63,18.59,6.63c5.62,0,10.7-0.93,15.15-2.79V50.17c-2.28,0.93-4.51,1.75-6.73,2.39c-2.22,0.7-4.5,0.99-6.84,0.99
		c-7.84,0-11.75-4.89-11.75-14.67l0.01-0.16V38l-0.01-0.17c0-9.77,3.91-14.66,11.75-14.66c2.34,0,4.62,0.29,6.84,0.99
		c2.22,0.64,4.45,1.46,6.73,2.39V14.79c-4.45-1.86-9.53-2.79-15.15-2.79c-8.07,0-14.27,2.21-18.59,6.63
		c-4.33,4.43-6.44,10.88-6.44,19.26L172.13,38.36z"/>
	<path fill-rule="evenodd" clip-rule="evenodd" d="M78,41.35V44h0.25c0.77,5.78,2.84,10.4,6.28,13.91
		c4.38,4.54,10.64,6.81,18.77,6.81c5.61,0,10.29-0.47,14.15-1.4v-4.3c-4.97,1.34-9.36,1.98-13.22,1.98
		c-6.31,0-11.17-1.92-14.56-5.82c-3.34-3.78-5.03-9.19-5.08-16.18v-1.28c0.05-6.99,1.74-12.4,5.08-16.18
		c3.39-3.9,8.25-5.82,14.56-5.82c3.86,0,8.25,0.64,13.22,1.98v-4.3c-3.86-0.93-8.54-1.4-14.15-1.4c-8.13,0-14.39,2.27-18.77,6.81
		c-3.49,3.56-5.58,8.27-6.31,14.19H78v2.37c-0.05,0.77,0,2.35,0,2.35V39C78,39,77.95,40.58,78,41.35z"/>
	<path fill-rule="evenodd" clip-rule="evenodd" d="M215.9,0h72.87v62.02c0,9.93-8.06,17.98-17.99,17.98h-36.89
		c-9.93,0-17.99-8.05-17.99-17.98V0z M272,19.22c-4.38-4.42-10.71-6.64-19.11-6.64c-8.41,0-14.8,2.27-19.17,6.7
		c-4.37,4.42-6.56,10.88-6.56,19.31c0,8.5,2.19,15.02,6.62,19.44c4.37,4.48,10.76,6.69,19.05,6.69c8.4,0,14.74-2.21,19.11-6.63
		c4.37-4.43,6.56-10.94,6.56-19.44C278.5,30.1,276.31,23.64,272,19.22z M252.89,23.76c3.51,0,6.16,1.22,7.94,3.66
		c1.78,2.45,2.71,6.23,2.71,11.29c0,5.12-0.93,8.84-2.65,11.23c-1.73,2.44-4.43,3.61-8.06,3.61c-7.14,0-10.71-4.95-10.71-14.84
		C242.12,28.76,245.69,23.76,252.89,23.76z"/>
</g>
</svg>
