<?xml version="1.0" encoding="utf-8"?>
<!-- Generator: Adobe Illustrator 17.0.0, SVG Export Plug-In . SVG Version: 6.00 Build 0)  -->
<!DOCTYPE svg PUBLIC "-//W3C//DTD SVG 1.1//EN" "http://www.w3.org/Graphics/SVG/1.1/DTD/svg11.dtd">
<svg version="1.1" id="Livello_1" xmlns="http://www.w3.org/2000/svg" xmlns:xlink="http://www.w3.org/1999/xlink" x="0px" y="0px"
	 width="955.452px" height="482.976px" viewBox="0 0 955.452 482.976" enable-background="new 0 0 955.452 482.976"
	 xml:space="preserve">
<g>
	<defs>
		<rect id="SVGID_1_" x="-182.489" y="-180.872" width="1190.55" height="841.89"/>
	</defs>
	<clipPath id="SVGID_2_">
		<use xlink:href="#SVGID_1_"  overflow="visible"/>
	</clipPath>
	<path clip-path="url(#SVGID_2_)" d="M170.56,220.752c-2.37,1.015-4.058,1.523-5.073,1.523c-1.015,0-4.82,1.101-11.416,3.297
		c-6.596,2.205-10.401,3.298-11.416,3.298c-0.682,0-0.936-0.166-0.761-0.507c0.166-0.333-0.254-0.507-1.269-0.507
		c-0.681,0-2.877,0.507-6.595,1.521c-0.341,0-0.849,0.682-1.522,2.03c-0.682,1.356-1.522,2.03-2.537,2.03
		c-0.682,0-0.936-0.167-0.761-0.509c0.166-0.331-0.254-0.506-1.269-0.506c-0.682,0-2.965,1.189-6.849,3.551
		c-3.893,2.371-6.77,3.639-8.625,3.806c-1.863,0.174-4.059,0.595-6.596,1.268c-2.537,0.681-5.161,4.741-7.864,12.177
		c-1.016-1.689-2.537-4.059-4.567-7.104c0,1.014,0.167,7.277,0.507,18.773c0.674,0.682,1.856,1.014,3.552,1.014
		c-1.696,3.045-2.537,6.264-2.537,9.641c0-1.016,1.015,1.697,3.045,8.119c0,0.34-0.341,0.936-1.016,1.776
		c-0.681,0.847-1.014,1.608-1.014,2.28c0.333,0,1.014-0.332,2.03-1.014c2.362,2.029,3.718,2.711,4.059,2.029
		c-3.386,6.088-3.045,11.504,1.014,16.236c0.333,0,0.84,0.34,1.522,1.016c1.348-1.016,2.03-2.031,2.03-3.045
		c0.673,0,1.689,0.682,3.044,2.029c2.704-1.016,6.167-4.82,10.401-11.416c4.226-6.596,7.357-10.732,9.387-12.43
		c0,1.697-0.175,4.232-0.508,7.609c-1.015,0.682-2.03,1.697-3.044,3.045c0,0.34,0.166,0.85,0.508,1.522
		c-0.682,2.029-2.371,5.416-5.075,10.146c1.016,0.682,2.87,0.508,5.581-0.506c0,1.014-2.203,5.756-6.596,14.206
		c-0.341,0.341-0.174,0.849,0.508,1.522c2.703-1.016,4.567-3.211,5.582-6.596c-1.356,4.059-4.567,9.641-9.64,16.744
		c-2.712,1.012-6.771,2.709-12.178,5.072c-1.015-1.348-2.029-2.029-3.044-2.029c1.015,0,1.522-0.673,1.522-2.031
		c-0.34-0.33-0.761-0.586-1.268-0.76c-0.507-0.166-1.102-0.42-1.776-0.762c-1.356,1.355-2.029,2.371-2.029,3.046
		c-1.697-1.349-4.4-3.718-8.118-7.104c-2.03-1.686-5.582-7.103-10.655-16.234c-2.03-4.06-3.298-7.523-3.806-10.402
		c-0.506-2.869-2.116-5.494-4.819-7.863c0.333-5.074-0.507-11.328-2.538-18.773c-3.384-8.117-5.58-16.061-6.595-23.848
		c-6.088,0.685-13.532,1.017-22.324,1.017c-1.356,0-3.893-0.166-7.611-0.507c-3.725-0.334-6.262-0.51-7.61-0.51
		c-0.341-3.043-6.596-8.116-18.773-15.219c1.356-1.69,2.029-2.87,2.029-3.552c0-1.689-0.84-3.884-2.536-6.596
		c0.34-0.674,0.681-1.522,1.015-2.536c-0.675-2.031-1.523-3.211-2.537-3.553v-1.015c0-1.014,0.428-2.536,1.268-4.566
		c0.849-2.028,1.269-3.377,1.269-4.058c1.355-0.333,3.218-1.855,5.581-4.567c0.341,0.342,0.84,1.015,1.522,2.03
		c3.377-1.015,8.45-2.87,15.22-5.581c-1.355,1.356-1.355,2.029,0,2.029c1.016,0,1.436-0.333,1.269-1.014
		c-0.174-0.674,0.254-1.015,1.268-1.015c1.015,0,1.523,0.341,1.523,1.015c0,0.681,0.167,1.014,0.507,1.014
		c1.015-1.014,2.703-2.536,5.074-4.566l2.536,2.537c2.03-2.029,2.87-3.044,2.538-3.044c5.406-2.03,10.314-2.87,14.713-2.537
		c0.674-0.674,1.015-11.329,1.015-31.964c-1.015-1.015-2.204-2.536-3.552-4.567c-0.341-1.015-0.174-2.869,0.508-5.581
		c-0.341-1.347-0.849-2.87-1.523-4.565c-0.34-3.379,0.333-8.452,2.03-15.222c0-1.688-0.681-2.196-2.03-1.521
		c0.333-1.349,0.167-3.719-0.506-7.104c-0.683-3.378-1.016-5.406-1.016-6.088c0-0.675,0.254-1.69,0.761-3.045
		c0.508-1.348,0.761-2.363,0.761-3.045c0-5.747,0.674-14.538,2.03-26.383c-0.681-5.073-1.015-15.553-1.015-31.457
		c1.348-1.347,2.87-4.391,4.567-9.132c-0.682-3.377-1.015-4.899-1.015-4.566V24.909l1.522,1.014h4.059
		c0-0.333,0.333-2.196,1.015-5.581c0.674-2.363,0.674-4.225,0-5.581c3.718,0,6.088-1.182,7.103-3.552
		c1.015,0.342,3.211,1.522,6.596,3.552c3.377,2.03,5.58,3.045,6.595,3.045c1.016,0,1.776,0.34,2.284,1.014
		c0.507,0.682,0.927,1.014,1.268,1.014c-0.341,0-1.356,0.682-3.044,2.03l2.029,2.03c0.333,0,0.841-0.421,1.523-1.269
		c0.673-0.84,1.18-1.268,1.522-1.268c5.406,1.697,8.792,3.892,10.146,6.595c-1.014,0.682-1.521,1.357-1.521,2.03
		c1.688,0.34,4.058,1.355,7.103,3.044c-1.355-1.347-2.537-1.689-3.552-1.014c0.674,2.71,2.363,6.262,5.074,10.654
		c1.015,1.356,1.435,2.878,1.268,4.566c-0.174,1.697,0.761,2.537,2.791,2.537c-2.37,1.696-7.278,4.741-14.714,9.133
		c0.674,1.355,0.167,4.4-1.522,9.133c0,2.71-1.189,10.828-3.552,24.352v10.655c0,4.4-1.014,7.103-3.043,8.118
		c0.332,0.341,0.839,0.595,1.522,0.761c0.673,0.174,1.347,0.428,2.029,0.761c-0.682,26.383-0.508,44.99,0.507,55.811
		c-0.34,0.682-1.355,1.862-3.044,3.552c1.348,1.013,2.196,1.522,2.537,1.522c-2.371,4.74-0.682,7.103,5.074,7.103
		c1.014,0,7.523-1.016,19.533-3.045c12.003-2.029,18.519-3.044,19.534-3.044c2.03,0,4.059,1.189,6.088,3.552
		c0.333,0,1.522-0.927,3.552-2.791c2.029-1.855,3.551-2.791,4.566-2.791c4.393,0,8.625,1.189,12.684,3.552h3.045
		c7.776-0.673,12.177-1.015,13.191-1.015c3.377,0,5.914,1.19,7.611,3.552c4.392-2.362,6.255-3.552,5.581-3.552
		c7.103,0,13.357,0.508,18.772,1.522c-1.356,1.697-4.058,3.727-8.118,6.088c1.015,0.342,5.241,0.508,12.685,0.508h3.551
		c0,0.682,0.333,1.697,1.015,3.044c-0.341,0.341-1.522,0.508-3.552,0.508c-1.355,1.015-2.029,1.863-2.029,2.537
		c0.674,0.34,1.855,0.506,3.551,0.506l8.118-4.058c-1.355,1.015-1.522,2.03-0.507,3.045c1.689-1.69,3.718-1.348,6.089,1.013
		c-1.697,0-2.538,0.849-2.538,2.538c-0.34,0-1.189-0.841-2.536-2.538l-1.522,2.03c1.014,1.015,3.044,1.522,6.088,1.522
		c1.014,0,1.855,0.342,2.537,1.015c0.674,0.682,1.181,1.015,1.522,1.015c-4.74-0.333-8.459,0.848-11.162,3.552
		c-1.015-0.334-2.37-0.507-4.059-0.507c-1.697,1.014-4.233,2.37-7.611,4.058c0.674,0.682,1.523,1.015,2.537,1.015
		c-1.356-0.673-2.711-1.015-4.059-1.015c-1.014,0-2.37,0.849-4.058,2.537c-1.697,1.696-2.966,2.537-3.806,2.537
		c-0.848,0-1.775,0.175-2.791,0.508c-1.014,0.34-2.029,0.506-3.043,0.506c-1.016,0-1.951-0.42-2.791-1.267
		c-0.848-0.842-1.609-1.269-2.283-1.269c0.332,0,0.507,1.014,0.507,3.045c-1.696,2.028-3.044,3.043-4.058,3.043h-4.314h-4.82
		c-1.014,1.015-0.507,1.522,1.523,1.522c-2.371,0.341-4.908,2.878-7.611,7.611C173.937,221.942,172.591,221.767,170.56,220.752
		 M62.998,29.474l-1.014-1.522l-2.537,1.522v1.523L62.998,29.474z M96.486,260.835c0.332-1.348,1.181-3.553,2.536-6.598
		c0,0.342,0.508,2.206,1.522,5.582C99.863,259.82,98.514,260.159,96.486,260.835 M125.912,331.866
		c-3.385,4.391-5.582,6.596-6.596,6.596c-3.044,0-4.566-1.014-4.566-3.045C117.453,334.736,121.172,333.562,125.912,331.866
		 M164.979,188.28c0-0.673-0.341-1.688-1.015-3.043c-0.682,0-1.696,0.507-3.044,1.522
		C161.935,187.774,163.283,188.28,164.979,188.28 M200.495,190.31h-4.059l7.103,3.552
		C204.554,193.862,203.539,192.681,200.495,190.31 M203.033,187.266l-3.552-1.015c0.674,0,0.841,0.848,0.508,2.538
		C200.661,188.114,201.677,187.607,203.033,187.266 M217.239,192.34l-1.015-1.522l-2.537,1.522v1.522L217.239,192.34z"/>
	<path clip-path="url(#SVGID_2_)" d="M349.151,308.021c-7.445,7.783-14.889,15.727-22.325,23.846
		c-8.799,9.133-17.425,15.047-25.875,17.758c-2.371,0.332-4.742,0.506-7.104,0.506c-3.726,0.676-5.922,2.363-6.596,5.076
		c-0.682,0-1.862-0.85-3.551-2.537c-0.341,0-1.102,0.506-2.283,1.522c-1.189,1.016-2.458,1.521-3.806,1.521
		c-3.726,0-10.401-2.457-20.04-7.357c-9.64-4.906-14.968-7.863-15.983-8.879c-13.191-14.205-22.157-28.238-26.89-42.111
		c-1.015-2.703-1.522-6.088-1.522-10.147c0-0.675,0.166-3.045,0.507-7.103v-8.117c-1.696-2.361-2.537-4.393-2.537-6.09
		c0-3.375,0.674-6.594,2.03-9.639c2.703-10.48,7.943-25.702,15.728-45.663c0.333-1.688,0.674-4.392,1.014-8.119
		c2.364-0.333,5.075-3.297,8.118-8.879c3.045-5.581,5.582-8.371,7.611-8.371c1.348,0,3.298,0.935,5.835,2.79
		c2.537,1.863,4.313,2.791,5.327,2.791c0.333,0,0.841-0.84,1.522-2.537c2.363,0,6.255-0.333,11.669-1.015
		c5.408-0.673,8.626-1.015,9.641-1.015c1.348,0,2.362,1.015,3.044,3.045l3.552-2.537h5.581c-2.37,1.355-3.552,3.552-3.552,6.596
		c0,4.059,2.029,6.596,6.088,7.61c-2.37,4.059-2.877,8.119-1.521,12.177c-2.712,0-4.567,0.255-5.582,0.761
		c-1.014,0.507-2.203,1.951-3.551,4.312c-1.015,1.016-6.263,3.894-15.728,8.625c-2.371,5.416-5.581,13.874-9.641,25.37
		c-3.044,9.132-4.566,19.788-4.566,31.964c0,1.016-0.253,2.791-0.761,5.327c-0.508,2.536-0.761,4.313-0.761,5.327l2.029,3.553
		c0.333,4.059,2.196,9.641,5.582,16.742c4.732,10.148,10.313,15.223,16.743,15.223c4.732,0,12.851-3.379,24.354-10.148
		c9.465-5.074,14.879-8.283,16.235-9.641c0,1.357,0.674,3.219,2.03,5.582c2.029-3.045,4.225-6.168,6.595-9.388
		c2.363-3.21,5.241-4.819,8.625-4.819l1.016,2.028C338.495,308.361,343.062,309.716,349.151,308.021 M423.733,93.91h-38.052
		c-0.682,0-5.756,1.103-15.222,3.299c-9.473,2.204-14.713,3.298-15.728,3.298c-1.356,0-1.862-0.421-1.521-1.269
		c0.332-0.84-0.175-1.268-1.523-1.268l-5.074,3.552c-4.058,0.682-9.56,2.028-16.489,4.058c-6.937,2.03-14.46,6.43-22.578,13.192
		v3.551c2.03,1.355,5.24,2.879,9.64,4.567c1.015,3.725,4.392,7.277,10.147,10.655c0,2.71-1.776,4.994-5.327,6.849
		c-3.552,1.863-6.342,2.791-8.372,2.791h-15.221c-1.356,0-2.877-1.349-4.566-4.06c-1.696-2.704-3.218-4.392-4.566-5.074
		c-9.474-4.733-23.172-11.669-41.097-20.801c1.015-4.392-0.848-9.133-5.581-14.207c4.392-4.391,8.284-6.596,11.669-6.596
		c0.333-0.674,0.841-3.883,1.523-9.64c2.703-2.362,6.928-5.074,12.684-8.117c25.368-6.089,45.662-9.133,60.884-9.133
		c1.015,0,2.029,0.594,3.045,1.776c1.014,1.189,1.775,1.949,2.283,2.283c0.507,0.341,2.449,0.508,5.834,0.508
		c2.703,0,4.059-2.363,4.059-7.103c2.029,4.058,4.392,6.261,7.103,6.595l73.569,9.133c0.674,0.34,1.688,1.863,3.043,4.566
		C428.3,88.33,426.778,90.534,423.733,93.91 M317.186,313.601h-2.029v3.551h2.029V313.601z M342.555,296.349l-5.074,3.553
		l-1.014-2.029l5.073-3.551L342.555,296.349z M354.224,70.064l-4.566,1.523v-2.03l3.552-1.522L354.224,70.064z"/>
	<path clip-path="url(#SVGID_2_)" d="M571.373,221.26c0,1.354-1.697,4.907-5.075,10.655c-4.74,8.116-7.443,12.857-8.117,14.205
		c1.688,0.682,4.226,0,7.61-2.029c-1.696,7.443-3.892,13.365-6.596,17.76c0.333,1.354,0.333,2.709,0,4.057
		c-1.015,2.371-2.878,5.074-5.581,8.119c0,1.355,0.167,2.877,0.508,4.566c-5.415,7.443-12.011,16.742-19.788,27.904l-5.073,2.031
		c-6.089,6.088-9.133,10.486-9.133,13.191c0,1.355,0.508,2.37,1.521,3.043c-2.37,0-3.892,0.508-4.565,1.521
		c-2.711,5.756-6.263,10.148-10.655,13.191c-4.399,3.045-8.546,6.002-12.431,8.879c-3.892,2.869-8.712,5.328-14.459,7.358
		c-0.683,2.028-1.522,3.044-2.537,3.044c-1.015,0-1.863-0.342-2.537-1.016c-0.682,0.674-1.015,2.363-1.015,5.074
		c0.333,0-0.682-1.355-3.044-4.059c-2.37,1.348-5.074,4.391-8.118,9.133c0-2.371,0.333-3.893,1.015-4.566
		c-0.682-0.342-1.269-0.596-1.775-0.762c-0.508-0.174-1.103-0.428-1.776-0.762l-1.014,6.09c-3.727,2.703-7.952,4.059-12.686,4.059
		h-8.625c-10.829,0-20.802-3.219-29.934-9.641c-5.757-4.059-11.757-11.084-18.012-21.057c-6.264-9.971-9.728-18.518-10.401-25.62
		c-0.341-0.333-0.849-1.183-1.522-2.538c-2.371-7.102-5.074-17.584-8.118-31.457c-1.015-9.807-1.522-18.089-1.522-24.861
		c0-9.465,2.537-24.686,7.61-45.663c3.377-14.206,6.763-28.237,10.147-42.111c6.763-9.465,12.511-21.309,17.251-35.516
		c4.733-9.807,11.67-24.52,20.802-44.141c6.088-14.205,13.699-28.238,22.832-42.111c7.104-10.822,14.032-21.642,20.803-32.472
		c1.347-1.688,3.718-3.376,7.103-5.073c0.333-1.015,0.508-2.363,0.508-4.058c1.015,0.339,3.211,1.442,6.596,3.297
		c3.377,1.863,5.747,2.791,7.104,2.791c3.717,0,7.522,0.506,11.415,1.521c3.885,1.015,9.386,2.879,16.489,5.582
		c1.349,1.695,3.378,3.726,6.089,6.088c6.088,2.711,10.654,5.074,13.698,7.103c-1.695,1.696-4.059,2.029-7.102,1.014
		c-1.697,1.356-1.697,2.538,0,3.552c-3.045,8.118-4.741,14.548-5.073,19.281c-1.357,1.355-2.878,3.55-4.566,6.595
		c-3.727,18.607-10.322,34.675-19.788,48.199c-6.429,12.177-16.743,30.11-30.949,53.782c-4.059,4.059-9.561,10.321-16.489,18.773
		c-6.936,8.458-16.663,20.801-29.174,37.038c-4.06,4.058-9.307,10.994-15.728,20.801c-4.742,9.815-7.104,23.173-7.104,40.084
		c0,9.13,0.421,15.14,1.268,18.009c0.841,2.879,4.139,11.758,9.895,26.639c2.703,6.43,5.073,9.639,7.103,9.639
		c1.349,0,4.733-1.348,10.147-4.059l2.537,3.043c1.689-0.672,5.747-2.869,12.177-6.594c5.073-2.703,8.118-4.061,9.131-4.061
		c1.017,0,1.437,0.254,1.27,0.762c-0.174,0.508,0.255,0.762,1.268,0.762c1.015,0,2.449-1.775,4.312-5.328
		c1.855-3.551,3.298-5.326,4.314-5.326c1.015,0,1.435,0.252,1.268,0.76c-0.174,0.508,0.254,0.762,1.268,0.762
		c1.016,0,2.03-0.762,3.044-2.283c1.016-1.523,1.689-2.451,2.03-2.791c6.763-3.043,15.046-8.791,24.861-17.25
		c11.494-9.807,19.279-16.062,23.339-18.773v-3.551c1.688,1.697,3.044,2.537,4.058,2.537c1.348-1.016,1.182-3.045-0.508-6.088h2.537
		c1.348-0.334,2.616-0.508,3.806-0.508c1.181,0,2.79-1.523,4.819-4.566c2.362-4.393,4.06-7.104,5.074-8.117l2.537,2.535
		c0.673-0.332,1.941-1.268,3.805-2.789c1.856-1.521,3.298-2.283,4.312-2.283c1.015,0,1.349,0.174,1.015,0.506
		c-0.341,1.016-0.341,1.697,0,2.031c0.675-5.407,2.363-12.686,5.074-21.819c0.674-1.347,5.748-6.761,15.222-16.235V221.26z
		 M484.358,75.9c-0.508-0.509-0.761-0.928-0.761-1.269c-4.059,0.341-7.19,2.624-9.387,6.849c-2.203,4.233-3.979,8.206-5.327,11.923
		c-1.015,0.683-2.37,1.864-4.059,3.552c0,3.385-0.682,6.429-2.03,9.132c-10.148,20.295-16.917,33.661-20.294,40.083h2.029
		c12.177-16.568,22.49-32.298,30.949-47.184c0.674-2.031,1.522-4.734,2.537-8.119c0.332-1.015,2.703-5.073,7.104-12.176
		C485.12,77.341,484.866,76.405,484.358,75.9 M509.472,286.71l-2.028-1.014l-2.537,4.564l2.029,1.016L509.472,286.71z
		 M560.21,233.944h-2.029l-1.522,6.088h2.03L560.21,233.944z"/>
	<path clip-path="url(#SVGID_2_)" d="M696.686,220.752c-2.369,1.015-4.058,1.523-5.073,1.523c-1.015,0-4.819,1.101-11.415,3.297
		c-6.596,2.205-10.401,3.298-11.416,3.298c-0.682,0-0.936-0.166-0.762-0.507c0.167-0.333-0.253-0.507-1.268-0.507
		c-0.683,0-2.878,0.507-6.597,1.521c-0.341,0-0.848,0.682-1.521,2.03c-0.682,1.356-1.522,2.03-2.537,2.03
		c-0.681,0-0.936-0.167-0.761-0.509c0.166-0.331-0.254-0.506-1.269-0.506c-0.683,0-2.965,1.189-6.85,3.551
		c-3.893,2.371-6.77,3.639-8.625,3.806c-1.863,0.174-4.059,0.595-6.596,1.268c-2.537,0.681-5.161,4.741-7.864,12.177
		c-1.015-1.689-2.536-4.059-4.566-7.104c0,1.014,0.166,7.277,0.508,18.773c0.673,0.682,1.854,1.014,3.551,1.014
		c-1.697,3.045-2.536,6.264-2.536,9.641c0-1.016,1.015,1.697,3.044,8.119c0,0.34-0.341,0.936-1.015,1.776
		c-0.683,0.847-1.015,1.608-1.015,2.28c0.332,0,1.015-0.332,2.029-1.014c2.362,2.029,3.718,2.711,4.059,2.029
		c-3.385,6.088-3.044,11.504,1.016,16.236c0.332,0,0.84,0.34,1.522,1.016c1.348-1.016,2.03-2.031,2.03-3.045
		c0.673,0,1.688,0.682,3.044,2.029c2.703-1.016,6.166-4.82,10.4-11.416c4.225-6.596,7.356-10.732,9.387-12.43
		c0,1.697-0.174,4.232-0.508,7.609c-1.015,0.682-2.029,1.697-3.044,3.045c0,0.34,0.167,0.85,0.508,1.522
		c-0.682,2.029-2.371,5.416-5.074,10.146c1.015,0.682,2.87,0.508,5.581-0.506c0,1.014-2.204,5.756-6.596,14.206
		c-0.341,0.341-0.175,0.849,0.507,1.522c2.703-1.016,4.566-3.211,5.582-6.596c-1.356,4.059-4.567,9.641-9.641,16.744
		c-2.712,1.012-6.771,2.709-12.177,5.072c-1.015-1.348-2.029-2.029-3.044-2.029c1.015,0,1.522-0.673,1.522-2.031
		c-0.341-0.33-0.762-0.586-1.27-0.76c-0.507-0.166-1.102-0.42-1.774-0.762c-1.356,1.355-2.03,2.371-2.03,3.046
		c-1.697-1.349-4.4-3.718-8.117-7.104c-2.03-1.686-5.582-7.103-10.655-16.234c-2.03-4.06-3.299-7.523-3.806-10.402
		c-0.507-2.869-2.117-5.494-4.819-7.863c0.332-5.074-0.509-11.328-2.537-18.773c-3.386-8.117-5.581-16.061-6.596-23.848
		c-6.089,0.685-13.533,1.017-22.324,1.017c-1.356,0-3.894-0.166-7.61-0.507c-3.727-0.334-6.264-0.51-7.611-0.51
		c-0.341-3.043-6.596-8.116-18.772-15.219c1.357-1.69,2.029-2.87,2.029-3.552c0-1.689-0.84-3.884-2.537-6.596
		c0.342-0.674,0.683-1.522,1.016-2.536c-0.674-2.031-1.522-3.211-2.537-3.553v-1.015c0-1.014,0.428-2.536,1.269-4.566
		c0.849-2.028,1.269-3.377,1.269-4.058c1.355-0.333,3.218-1.855,5.581-4.567c0.341,0.342,0.841,1.015,1.522,2.03
		c3.377-1.015,8.45-2.87,15.221-5.581c-1.356,1.356-1.356,2.029,0,2.029c1.015,0,1.435-0.333,1.268-1.014
		c-0.174-0.674,0.255-1.015,1.269-1.015c1.016,0,1.522,0.341,1.522,1.015c0,0.681,0.167,1.014,0.508,1.014
		c1.014-1.014,2.702-2.536,5.073-4.566l2.536,2.537c2.03-2.029,2.87-3.044,2.538-3.044c5.406-2.03,10.313-2.87,14.713-2.537
		c0.674-0.674,1.015-11.329,1.015-31.964c-1.015-1.015-2.203-2.536-3.551-4.567c-0.342-1.015-0.175-2.869,0.507-5.581
		c-0.341-1.347-0.849-2.87-1.523-4.565c-0.341-3.379,0.333-8.452,2.03-15.222c0-1.688-0.682-2.196-2.03-1.521
		c0.333-1.349,0.167-3.719-0.507-7.104c-0.682-3.378-1.016-5.406-1.016-6.088c0-0.675,0.254-1.69,0.762-3.045
		c0.508-1.348,0.761-2.363,0.761-3.045c0-5.747,0.674-14.538,2.03-26.383c-0.682-5.073-1.015-15.553-1.015-31.457
		c1.348-1.347,2.869-4.391,4.566-9.132c-0.682-3.377-1.016-4.899-1.016-4.566V24.909l1.523,1.014h4.058
		c0-0.333,0.333-2.196,1.016-5.581c0.673-2.363,0.673-4.225,0-5.581c3.718,0,6.088-1.182,7.103-3.552
		c1.015,0.342,3.212,1.522,6.596,3.552c3.378,2.03,5.581,3.045,6.596,3.045c1.016,0,1.776,0.34,2.284,1.014
		c0.507,0.682,0.927,1.014,1.267,1.014c-0.341,0-1.355,0.682-3.044,2.03l2.029,2.03c0.333,0,0.841-0.421,1.522-1.269
		c0.673-0.84,1.181-1.268,1.521-1.268c5.406,1.697,8.792,3.892,10.147,6.595c-1.013,0.682-1.521,1.357-1.521,2.03
		c1.688,0.34,4.059,1.355,7.104,3.044c-1.356-1.347-2.538-1.689-3.552-1.014c0.673,2.71,2.362,6.262,5.073,10.654
		c1.015,1.356,1.435,2.878,1.269,4.566c-0.175,1.697,0.761,2.537,2.79,2.537c-2.371,1.696-7.277,4.741-14.714,9.133
		c0.674,1.355,0.167,4.4-1.521,9.133c0,2.71-1.19,10.828-3.553,24.352v10.655c0,4.4-1.014,7.103-3.043,8.118
		c0.333,0.341,0.84,0.595,1.521,0.761c0.674,0.174,1.349,0.428,2.03,0.761c-0.682,26.383-0.509,44.99,0.507,55.811
		c-0.341,0.682-1.355,1.862-3.045,3.552c1.349,1.013,2.196,1.522,2.538,1.522c-2.371,4.74-0.682,7.103,5.073,7.103
		c1.015,0,7.523-1.016,19.534-3.045c12.002-2.029,18.519-3.044,19.533-3.044c2.029,0,4.059,1.189,6.089,3.552
		c0.332,0,1.521-0.927,3.551-2.791c2.03-1.855,3.552-2.791,4.566-2.791c4.393,0,8.626,1.189,12.685,3.552h3.044
		c7.777-0.673,12.177-1.015,13.191-1.015c3.377,0,5.914,1.19,7.61,3.552c4.392-2.362,6.255-3.552,5.582-3.552
		c7.102,0,13.356,0.508,18.773,1.522c-1.357,1.697-4.06,3.727-8.118,6.088c1.015,0.342,5.24,0.508,12.685,0.508h3.551
		c0,0.682,0.333,1.697,1.015,3.044c-0.341,0.341-1.521,0.508-3.552,0.508c-1.354,1.015-2.028,1.863-2.028,2.537
		c0.674,0.34,1.854,0.506,3.551,0.506l8.118-4.058c-1.356,1.015-1.523,2.03-0.508,3.045c1.689-1.69,3.718-1.348,6.089,1.013
		c-1.697,0-2.537,0.849-2.537,2.538c-0.341,0-1.188-0.841-2.537-2.538l-1.521,2.03c1.015,1.015,3.044,1.522,6.088,1.522
		c1.016,0,1.855,0.342,2.537,1.015c0.674,0.682,1.181,1.015,1.522,1.015c-4.741-0.333-8.459,0.848-11.162,3.552
		c-1.016-0.334-2.371-0.507-4.06-0.507c-1.696,1.014-4.233,2.37-7.61,4.058c0.674,0.682,1.523,1.015,2.537,1.015
		c-1.355-0.673-2.713-1.015-4.058-1.015c-1.016,0-2.37,0.849-4.06,2.537c-1.696,1.696-2.965,2.537-3.806,2.537
		c-0.848,0-1.774,0.175-2.791,0.508c-1.014,0.34-2.028,0.506-3.043,0.506c-1.016,0-1.95-0.42-2.791-1.267
		c-0.848-0.842-1.609-1.269-2.282-1.269c0.332,0,0.506,1.014,0.506,3.045c-1.695,2.028-3.044,3.043-4.058,3.043h-4.313h-4.819
		c-1.015,1.015-0.508,1.522,1.521,1.522c-2.37,0.341-4.907,2.878-7.61,7.611C700.064,221.942,698.717,221.767,696.686,220.752
		 M589.126,29.474l-1.016-1.522l-2.536,1.522v1.523L589.126,29.474z M622.612,260.835c0.332-1.348,1.181-3.553,2.536-6.598
		c0,0.342,0.508,2.206,1.521,5.582C625.988,259.82,624.64,260.159,622.612,260.835 M652.039,331.866
		c-3.385,4.391-5.581,6.596-6.596,6.596c-3.044,0-4.566-1.014-4.566-3.045C643.58,334.736,647.298,333.562,652.039,331.866
		 M691.106,188.28c0-0.673-0.341-1.688-1.015-3.043c-0.683,0-1.696,0.507-3.045,1.522
		C688.061,187.774,689.409,188.28,691.106,188.28 M726.622,190.31h-4.059l7.103,3.552
		C730.68,193.862,729.666,192.681,726.622,190.31 M729.159,187.266l-3.552-1.015c0.674,0,0.84,0.848,0.508,2.538
		C726.788,188.114,727.804,187.607,729.159,187.266 M743.365,192.34l-1.015-1.522l-2.537,1.522v1.522L743.365,192.34z"/>
	<path clip-path="url(#SVGID_2_)" d="M867.002,388.534c0.288-0.607,0.541-1.262,0.755-1.973
		C867.549,387.183,867.297,387.841,867.002,388.534"/>
	<path clip-path="url(#SVGID_2_)" d="M916.97,182.727c-0.524-0.368-1.05-0.628-1.573-0.786
		C915.827,182.467,916.352,182.727,916.97,182.727"/>
	<path clip-path="url(#SVGID_2_)" d="M848.446,268.609c-1.8,1.417-4.719,5.028-8.759,10.846c-4.043,5.815-2.521-7.334-4.797-6.608
		c-0.961-1.374-1.713-2.097-2.255-2.151c-0.098,0.948-0.745,1.842-1.928,2.677c-0.482-0.686-0.859-1.045-1.128-1.073
		c-2.812-4.764,4.542-10.103,7.854-15.515c-0.341,0.609-1.366-0.142-3.072-2.236c-0.883,0.555-1.465,0.808-1.732,0.782
		c0.065-0.631,0.405-1.315,1.038-2.052c0.623-0.728,0.954-1.258,0.986-1.576c-1.014-6.175-1.569-8.795-1.666-7.846
		c0.324-3.157,1.312-6.097,2.971-8.804c-1.365-0.141-2.285-0.55-2.762-1.245c0.137-1.76,0.264-3.385,0.381-4.882
		c-0.267-0.038-0.512-0.21-0.485-0.495c0.183-1.86,0.238-3.729,0.202-5.601c-0.055-2.881-0.274-5.764-0.329-8.645
		c-0.06-2.965,0.199-5.877,0.476-8.817c0.557-5.943,1.16-11.842,2.56-17.669c1.387-5.791,1.641-11.735,1.92-17.653
		c0.137-2.922,0.348-5.79,0.938-8.663c0.565-2.748,1.22-5.486,1.334-8.296c-0.462-1.163-0.131-2.753,0.997-4.772
		c-0.275-0.029,14.245-40.971,17.339-65.588c-0.517-0.369-1.034-0.662-1.56-0.879c-0.535-0.213-0.917-0.493-1.153-0.839
		c1.733-0.78,2.81-3.224,3.233-7.338l1.028-9.965c3.207-12.453,7.317-12.362,7.579-14.895c1.815-4.288,2.517-7.093,2.104-8.416
		c6.411-3.49,10.655-5.93,12.727-7.319c-1.636-0.168-2.307-1.032-2.002-2.604c0.297-1.565-8.818-3.149-9.505-4.502
		c-1.759-4.332,6.746,6.198,6.467,3.606c0.268-0.167,0.54-0.243,0.814-0.231c-1.393-0.987-11.479-1.769-12.403-2.089
		c0.064-0.629,0.539-1.217,1.421-1.771c-0.831-2.64-3.346-4.975-7.533-7.01c-0.275-0.028-0.726,0.33-1.349,1.059
		c-0.631,0.737-1.079,1.088-1.349,1.06l-1.437-2.067c1.489-1.121,2.372-1.674,2.647-1.646c-0.274-0.028-0.58-0.372-0.923-1.053
		c-0.343-0.673-0.923-1.054-1.739-1.139c-0.818-0.084-9.599-0.971-12.123-3.149c-2.528-2.18-5.229-1.334-6.012-1.738
		c-1.047,2.132-6.28-5.856-9.271-6.165c0.411,1.325,0.232,3.066-0.538,5.221c-0.878,3.109-1.325,4.824-1.356,5.133l-3.268-0.337
		l-1.13-1.073l-1.869-1.528c0.032-0.311,0.154,1.14,0.377,4.354c-1.822,4.293,1.861,6.434,0.646,7.582
		c-1.534,14.873,1.98,31.466,2.039,36.267c-2.235,10.966-3.392,21.202-3.946,26.576c-0.065,0.637-0.367,1.565-0.906,2.785
		c-0.538,1.224-0.84,2.153-0.905,2.784c-0.066,0.638,0.007,2.562,0.23,5.779c0.214,3.222,0.12,5.453-0.278,6.685
		c1.15-0.519,1.651,0.014,1.488,1.593c-2.02,6.189-3.052,10.878-3.104,14.065c0.379,1.642,0.642,3.108,0.787,4.396
		c-0.812,2.48-1.125,4.201-0.948,5.179c0.89,2.011-3.738,2.042-3.018,3.075c-1.549,15.011,2.509,25.514,1.795,29.196
		c0.032,0.397,0.062,0.794,0.092,1.192c0.204,2.787,0.274,5.528-0.073,8.293c-0.361,2.874-0.951,5.719-1.304,8.593
		c-0.355,2.912-0.482,5.854-0.703,8.779c-0.223,2.946-0.439,5.894-0.583,8.847c-0.297,5.956-0.323,11.933,0.333,17.907
		c0.023,0.21-0.104,0.361-0.275,0.443c0.122,7.146-4.07,13.367-2.19,20.992c0.916,7.131,0.989,13.05,0.232,17.767
		c1.946,2.442,2.991,5.029,3.121,7.755c0.131,2.734,0.818,6.079,2.061,10.045c3.204,8.961,5.542,14.319,7.013,16.068
		c2.666,3.475,0.427,0.089,1.662,1.491c0.065-0.631-0.018,5.488,1.204,4.333c0.509,0.378,1.688-6.35,2.08-6.153
		c0.391,0.205,0.706,0.478,0.946,0.817c-0.13,1.268-0.604,1.857-1.42,1.773c0.816,0.084,1.567,0.804,2.254,2.15
		c4.58-1.762,2.936,7.938,5.216,7.214c4.021-5.245,7.268-4.109,8.95-7.551c-1.087,2.012,2.391,2.114,0.609,2.684
		c-0.485-0.686-5.48,0.012-5.174-0.278c4.351-7.538,5.859-4.775,5.956-5.725c-2.279,0.725-3.789,0.733-4.541,0.01
		c2.632-4.2,4.318-7.225,5.063-9.066c-0.209-0.658-0.295-1.147-0.261-1.467c0.946-1.176,1.861-2.041,2.744-2.593
		C847.896,272.554,848.282,270.195,848.446,268.609 M817.394,31.764l0.148-1.424l2.188-1.213l0.671,1.508L817.394,31.764z"/>
	<path clip-path="url(#SVGID_2_)" d="M863.565,30.263c0.538,0.369,1.117,0.795,1.739,1.282
		C864.669,30.654,864.089,30.226,863.565,30.263"/>
	<path clip-path="url(#SVGID_2_)" d="M757.187,439.307l1.747,0.182l-1.325,4.272l-1.744-0.181L757.187,439.307z M774.725,414.652
		l1.747,0.18l-1.323,4.274l-3.492-0.359l0.181-1.747L774.725,414.652z M788.41,281.979l4.365,0.451l-0.541,5.236l-5.237-0.54
		L788.41,281.979z M788.164,361.345l0.874,0.09l-0.09,0.872l-1.927,1.567l-0.875-0.09l0.091-0.871L788.164,361.345z M799.98,323.752
		c3.387,1.375,4.923,3.593,4.607,6.648c-1.288,2.514-2.602,3.849-3.943,4.003l-3.49-0.359l-4.275-1.321l0.451-4.364
		C793.787,326.786,796.004,325.252,799.98,323.752 M791.907,393.488l1.745,0.181l1.565,1.927l-1.925,1.564l-1.567-1.923
		L791.907,393.488z M815.121,228.278l0.872,0.091l0.423,4.454l-3.401-1.233l0.181-1.746L815.121,228.278z M877.016,286.708
		l-0.269,2.616c-4.702,5.691-7.602,10.978-8.692,15.864l-0.784-0.963l-0.872-0.09l3.528,17.124l-0.632,6.112
		c-4.85,1.411-7.328,2.626-7.433,3.645c2.253,0.964,3.146,3.704,2.682,8.214l-0.271,2.616c-0.54,5.241-5.465,7.377-14.775,6.417
		c-2.625-3.063-3.871-5.251-3.735-6.559l-6.108-0.631l0.179-1.747l-0.872-0.09c-6.307,5.525-12.382,13.132-18.232,22.819
		c-0.729-0.076-2.773,2.657-6.136,8.19c-2.159,5.218-4.553,8.5-7.191,9.842L806.529,380l-3.222-2.977l17.781-18.455
		c2.914-5.435,7.036-11.184,12.367-17.251l2.555-7.676c-2.911-0.301-4.065-3.359-3.466-9.179l2.377-5.932l-1.565-1.923l0.873,0.09
		l0.782,0.962l0.874,0.091l5.416-1.206l0.784,0.963c0.119-1.163,1.634-1.594,4.543-1.294c0.556-5.383,5.832-8.073,15.829-8.072
		c1.745,0.179,2.859-2.058,3.339-6.715c1.019,0.104,4.178-4.86,9.477-14.897L877.016,286.708z M814.901,298.824l10.537,9.027
		l-0.271,2.619l-0.872-0.09c-4.166-3.812-8.32-6.298-12.463-7.462l0.179-1.744L814.901,298.824z M826.824,311.524l0.871,0.089
		l1.566,1.926l-0.872-0.092L826.824,311.524z M837.352,294.966l1.746,0.181l0.423,4.454l-1.746-0.181L837.352,294.966z
		 M877.06,329.054l0.783,0.964l-0.089,0.87l-1.926,1.567l-0.603-2.706l0.962-0.786L877.06,329.054z M895.908,248.96l1.747,0.18
		l-0.182,1.744l-1.925,1.566l-0.874-0.089L895.908,248.96z M887.814,353.099l1.565,1.925l-1.144,2.53l-0.872-0.091l-1.566-1.927
		l0.09-0.873L887.814,353.099z M907.221,233.366l-0.18,1.744l-1.324,4.275l-2.618-0.271l-1.565-1.924l0.089-0.876
		c1.748,0.181,2.709-0.602,2.89-2.346l0.963-0.783L907.221,233.366z M908.994,224.726l1.745,0.18l-0.962,0.785l-0.091,0.871
		l0.782,0.963l-0.962,0.781l-0.872-0.089L908.994,224.726z M912.777,299.218c-2.688,3.252-5.194,4.756-7.522,4.515
		C907.652,300.451,910.159,298.947,912.777,299.218 M904.847,350.446c3.938,1.728,5.856,3.1,5.75,4.119l-0.091,0.874l-2.618-0.27
		l0.965-0.784l0.09-0.873l-0.964,0.783l-0.873-0.092l-5.057-2.285l0.089-0.871L904.847,350.446z M922.588,289.644l0.873,0.089
		l-0.091,0.872l-2.106,3.312l-0.783-0.963l-0.874-0.09l-0.963,0.781l0.092-0.872L922.588,289.644z M920.328,285.881l1.746,0.179
		l-0.269,2.62l-0.875-0.09L920.328,285.881z M913.114,415.691l2.619,0.271l-0.27,2.621l-1.927,1.565l-1.745-0.18L913.114,415.691z
		 M932.122,368.254l0.872,0.089l-0.36,3.492l-2.616-0.271l0.179-1.744L932.122,368.254z M938.357,384.777l0.872,0.089l-0.359,3.492
		l-2.618-0.27l0.18-1.747L938.357,384.777z M946.366,392.658l2.618,0.272c-0.12,1.164,0.693,1.833,2.437,2.014l1.387,3.672
		c-1.172,2.819-3.358,4.064-6.561,3.734l-1.385-3.671L946.366,392.658z"/>
	<rect x="55.293" y="386.83" clip-path="url(#SVGID_2_)" width="782.287" height="87.686"/>
	<polygon clip-path="url(#SVGID_2_)" fill="#FFFFFF" points="120.128,398.843 120.128,464.239 116.582,464.239 116.582,398.843 
		110.967,398.843 110.967,396.568 125.078,396.568 125.078,398.843 	"/>
	<path clip-path="url(#SVGID_2_)" fill="#FFFFFF" d="M168.553,439.503l3.103,24.736h-3.546l-2.512-22.51h-7.905l-2.955,22.51h-3.99
		l9.752-67.672h2.66l5.393,42.887V439.503z M165.302,439.454l-3.324-29.76l-3.916,29.76H165.302z"/>
	<polygon clip-path="url(#SVGID_2_)" fill="#FFFFFF" points="206.487,398.843 206.487,464.239 202.941,464.239 202.941,398.843 
		197.325,398.843 197.325,396.568 211.437,396.568 211.437,398.843 	"/>
	<polygon clip-path="url(#SVGID_2_)" fill="#FFFFFF" points="246.267,398.843 246.267,464.239 242.721,464.239 242.721,398.843 
		237.106,398.843 237.106,396.568 251.218,396.568 251.218,398.843 	"/>
	<path clip-path="url(#SVGID_2_)" fill="#FFFFFF" d="M285.679,396.569c3.398,0,5.098,1.375,5.098,4.122v59.332
		c0,2.81-1.208,4.217-3.62,4.217h-6.649c-2.414,0-3.621-1.406-3.621-4.217v-59.332c0-2.747,1.7-4.122,5.098-4.122H285.679z
		 M284.866,461.964c1.576,0,2.364-1.041,2.364-3.127v-58.146c0-1.23-0.493-1.848-1.477-1.848h-3.842
		c-0.986,0-1.478,0.617-1.478,1.848v58.146c0,2.086,0.788,3.127,2.365,3.127H284.866z"/>
	<path clip-path="url(#SVGID_2_)" fill="#FFFFFF" d="M325.238,396.569c3.399,0,5.098,1.375,5.098,4.122v59.332
		c0,2.81-1.207,4.217-3.62,4.217h-6.649c-2.414,0-3.62-1.406-3.62-4.217v-59.332c0-2.747,1.699-4.122,5.098-4.122H325.238z
		 M324.426,461.964c1.575,0,2.364-1.041,2.364-3.127v-58.146c0-1.23-0.493-1.848-1.478-1.848h-3.842
		c-0.985,0-1.477,0.617-1.477,1.848v58.146c0,2.086,0.787,3.127,2.364,3.127H324.426z"/>
	<rect x="356.006" y="432.347" clip-path="url(#SVGID_2_)" fill="#FFFFFF" width="14.554" height="2.274"/>
	<path clip-path="url(#SVGID_2_)" fill="#FFFFFF" d="M396.23,396.568h11.673c1.673,0,2.512,0.682,2.512,2.039v28.859
		c0,1.705-0.764,2.686-2.29,2.938l1.181,0.332c0.739,0.223,1.109,1.027,1.109,2.418v28.953c0,1.422-0.591,2.133-1.773,2.133H396.23
		V396.568z M406.867,427.133v-27.39c0-0.6-0.247-0.901-0.738-0.901h-6.354v30.661h4.95
		C406.154,429.503,406.867,428.714,406.867,427.133 M399.776,431.778v30.186h5.911c0.787,0,1.181-0.521,1.181-1.562v-26.728
		c0-1.262-0.714-1.895-2.142-1.895H399.776z"/>
	<path clip-path="url(#SVGID_2_)" fill="#FFFFFF" d="M453.889,439.503l3.102,24.736h-3.546l-2.512-22.51h-7.905l-2.956,22.51h-3.988
		l9.752-67.672h2.659l5.393,42.887V439.503z M450.638,439.454l-3.325-29.76l-3.915,29.76H450.638z"/>
	<path clip-path="url(#SVGID_2_)" fill="#FFFFFF" d="M486.208,464.239h-3.546v-67.672h11.673c1.674,0,2.512,0.682,2.512,2.039
		v28.859c0,1.705-0.764,2.686-2.29,2.938l1.182,0.332c0.739,0.223,1.108,1.027,1.108,2.418v31.086h-3.546v-30.566
		c0-1.262-0.715-1.895-2.144-1.895h-4.949V464.239z M493.301,427.134v-27.391c0-0.6-0.247-0.9-0.739-0.9h-6.354v30.66h4.949
		C492.586,429.503,493.301,428.714,493.301,427.134"/>
	<rect x="522.516" y="432.347" clip-path="url(#SVGID_2_)" fill="#FFFFFF" width="14.555" height="2.274"/>
	<polygon clip-path="url(#SVGID_2_)" fill="#FFFFFF" points="574.71,396.568 574.71,398.843 566.287,398.843 566.287,429.503 
		574.71,429.503 574.71,431.778 566.287,431.778 566.287,461.964 574.71,461.964 574.71,464.239 562.74,464.239 562.74,396.568 	"/>
	<polygon clip-path="url(#SVGID_2_)" fill="#FFFFFF" points="603.925,396.568 610.131,451.112 617.297,396.568 621.286,396.568 
		611.535,464.239 608.875,464.239 600.379,396.568 	"/>
	<polygon clip-path="url(#SVGID_2_)" fill="#FFFFFF" points="658.925,396.568 658.925,398.843 650.503,398.843 650.503,429.503 
		658.925,429.503 658.925,431.778 650.503,431.778 650.503,461.964 658.925,461.964 658.925,464.239 646.957,464.239 
		646.957,396.568 	"/>
	<polygon clip-path="url(#SVGID_2_)" fill="#FFFFFF" points="684.595,396.568 688.141,396.568 696.563,446.564 696.563,396.568 
		700.109,396.568 700.109,464.239 696.563,464.239 688.141,419.269 688.141,464.239 684.595,464.239 	"/>
	<polygon clip-path="url(#SVGID_2_)" fill="#FFFFFF" points="734.94,398.843 734.94,464.239 731.394,464.239 731.394,398.843 
		725.779,398.843 725.779,396.568 739.889,396.568 739.889,398.843 	"/>
	<path clip-path="url(#SVGID_2_)" fill="#FFFFFF" d="M779.449,460.023c0,2.81-1.207,4.217-3.62,4.217h-6.649
		c-2.414,0-3.62-1.406-3.62-4.217v-17.725h3.546v16.539c0,2.086,0.787,3.127,2.363,3.127h2.069c1.575,0,2.364-1.041,2.364-3.127
		v-25.873c0-1.264-0.715-1.897-2.143-1.897h-4.802c-2.267-1.043-3.398-2.258-3.398-3.648v-26.728c0-2.748,1.699-4.123,5.097-4.123
		h3.694c3.398,0,5.098,1.375,5.098,4.123v17.725h-3.546v-17.725c0-1.23-0.493-1.848-1.478-1.848h-3.842
		c-0.987,0-1.477,0.617-1.477,1.848v26.207c0,1.264,0.713,1.895,2.143,1.895h5.023c2.117,1.043,3.177,2.259,3.177,3.648V460.023z"/>
</g>
</svg>
